<?xml version="1.0" encoding="UTF-8" standalone="no"?>
<svg
   xmlns:svg="http://www.w3.org/2000/svg"
   xmlns="http://www.w3.org/2000/svg"
   version="1.1"
   width="605.12439"
   height="258.59375"
   id="svg3310">
  <defs
     id="defs3312" />
  <g
     transform="translate(-117.4375,-408.78125)"
     id="layer1">
    <path
       d="m 286.03791,627.32012 c 49.42705,-8.86347 99.97905,-37.34264 99.97905,-89.23866 0,-42.48192 -50.44543,-76.92928 -99.9672,-88.35055 l -0.005,-15.51848 c 0,-6.96289 5.64254,-12.5403 12.60543,-12.5403 l 12.17322,-0.005 0,-11.30877 -116.61064,0 0,11.30877 12.1673,0 c 6.96288,0 12.61135,5.51821 12.61135,12.48702 l 0,15.58953 c -49.51585,11.43903 -99.97312,45.88639 -99.97312,88.3387 0,51.86642 50.552,80.33967 99.97904,89.22683 l -0.005,14.69548 c 0,6.96289 -5.64847,12.4811 -12.61136,12.4811 l -12.16729,0 0,11.30877 116.61063,0 0,-11.30877 -12.17321,-0.005 c -6.96289,0 -12.60544,-5.57741 -12.60544,-12.5403 l -0.005,-14.61852 z m -67.04741,-159.04518 0,140.90378 c -27.93445,-10.52723 -45.70285,-35.23483 -45.70285,-71.10318 0,-30.38568 17.62038,-57.59778 45.70285,-69.8006 z m 67.02965,0.005 c 28.01734,12.1969 45.72653,39.40901 45.72653,69.79468 0,35.85651 -17.7684,60.57004 -45.70285,71.09726 l -0.0237,-140.89194 z"
       id="path120"
       style="fill:#034ea2;fill-opacity:1;stroke:#034ea2;stroke-width:1.16048157;stroke-linecap:butt;stroke-linejoin:miter;stroke-miterlimit:3.86400008;stroke-opacity:1;stroke-dasharray:none" />
    <path
       d="m 684.11271,479.18702 c -10.85288,0 -19.44399,2.39793 -27.82788,7.99311 -15.9507,10.68709 -23.83132,27.78643 -23.83132,51.95523 0,17.09934 3.75381,29.27848 12.13769,39.96557 9.20688,11.84165 21.82416,17.46643 38.92942,17.46643 13.48172,0 26.37136,-3.30974 38.0413,-10.21342 l 0,-54.61961 -44.25816,0 2.96041,18.79862 17.46643,0 0,26.05163 c -3.7834,1.97163 -7.92798,2.81239 -13.02581,2.81239 -7.40103,0 -13.63566,-2.40385 -17.9105,-6.51291 -5.75504,-5.75504 -8.58519,-16.28226 -8.58519,-32.56453 0,-17.09934 2.04268,-29.4561 9.76936,-36.85713 3.94919,-3.78341 9.69239,-5.62479 16.43029,-5.62479 8.71545,0 16.43029,2.79463 23.83132,8.88124 l 12.13769,-14.358 c -10.02988,-8.70953 -22.45177,-13.17383 -36.26505,-13.17383 z m -243.64193,1.77624 0,114.27192 27.82787,0 c 6.74382,0 12.15546,-0.26668 16.43029,-0.59209 10.68709,-0.82299 20.9242,-7.06354 27.82788,-16.43028 7.73259,-10.36145 11.5456,-24.05039 11.5456,-39.66953 0,-20.55118 -5.16888,-35.23483 -15.69018,-45.59035 -6.90368,-6.9096 -15.31717,-10.42657 -25.01548,-11.24956 -4.60641,-0.32589 -13.25673,-0.74011 -19.83477,-0.74011 l -23.09121,0 z m 104.65057,0 0,114.27192 22.9432,0 0,-42.03786 12.72977,0 c 12.66464,0 17.53748,-1.38547 22.79517,-3.84853 12.49886,-5.92083 19.83477,-18.02891 19.83477,-33.15662 0,-13.15015 -5.7432,-23.68922 -16.43029,-29.60412 -6.41226,-3.61763 -12.42189,-5.62479 -31.82443,-5.62479 l -30.04819,0 z m -81.26331,18.05852 10.50946,0 c 9.0411,0 14.28103,3.36895 18.05851,9.62134 4.6064,7.56089 5.77281,18.65652 5.77281,31.97245 0,24.16881 -6.92737,35.96901 -22.05507,35.96901 l -12.28571,0 0,-77.5628 z m 104.20651,0.59208 14.65404,0 c 9.69831,0 15.54216,6.32936 15.54216,17.02237 0,5.42348 -0.84076,8.71545 -2.81239,11.84165 -3.1262,4.76626 -5.87346,5.92082 -15.24612,5.92082 l -12.13769,0 0,-34.78484 z"
       id="path122"
       style="fill:#034ea2;fill-opacity:1;fill-rule:evenodd;stroke:none" />
  </g>
</svg>
