<?xml version="1.0" encoding="UTF-8" standalone="no"?>
<!-- Created with Inkscape (http://www.inkscape.org/) -->

<svg
   width="115.07809mm"
   height="40.039494mm"
   viewBox="0 0 115.07809 40.039494"
   version="1.1"
   id="svg1"
   inkscape:version="1.3.2 (091e20ef0f, 2023-11-25, custom)"
   sodipodi:docname="exspy-banner-light.svg"
   xmlns:inkscape="http://www.inkscape.org/namespaces/inkscape"
   xmlns:sodipodi="http://sodipodi.sourceforge.net/DTD/sodipodi-0.dtd"
   xmlns="http://www.w3.org/2000/svg"
   xmlns:svg="http://www.w3.org/2000/svg">
  <sodipodi:namedview
     id="namedview1"
     pagecolor="#ffffff"
     bordercolor="#666666"
     borderopacity="1.0"
     inkscape:showpageshadow="2"
     inkscape:pageopacity="0.0"
     inkscape:pagecheckerboard="0"
     inkscape:deskcolor="#d1d1d1"
     inkscape:document-units="mm"
     inkscape:zoom="0.69486532"
     inkscape:cx="207.2344"
     inkscape:cy="124.48455"
     inkscape:window-width="1920"
     inkscape:window-height="1149"
     inkscape:window-x="0"
     inkscape:window-y="27"
     inkscape:window-maximized="1"
     inkscape:current-layer="layer1" />
  <defs
     id="defs1" />
  <g
     inkscape:label="Layer 1"
     inkscape:groupmode="layer"
     id="layer1"
     transform="translate(-50.270832,-115.66564)">
    <path
       style="font-style:italic;font-size:36.6889px;line-height:1.25;font-family:Nunito;-inkscape-font-specification:'Nunito Italic';stroke-width:0.264583"
       d="m 58.562524,142.19171 q -3.815646,0 -6.053669,-2.09127 -2.238023,-2.12795 -2.238023,-5.79684 0,-2.89843 1.174045,-5.2832 1.174045,-2.42147 3.302001,-3.85234 2.127956,-1.46755 5.063068,-1.46755 2.788357,0 4.402668,1.28411 1.614312,1.24742 2.201334,3.302 0.587023,2.01789 0.330201,4.25591 -0.110067,0.62371 -0.366889,0.84385 -0.220134,0.18344 -0.770467,0.18344 H 53.169256 q -0.256823,2.86173 1.210733,4.54942 1.467556,1.68769 4.32929,1.68769 1.320801,0 2.531535,-0.29351 1.247422,-0.3302 2.384778,-1.10067 0.807156,-0.51364 1.3208,-0.18344 0.513645,0.29351 0.513645,0.9906 0,0.6604 -0.733778,1.17405 -1.247423,0.88053 -2.935112,1.35748 -1.687689,0.44027 -3.228623,0.44027 z m 1.210734,-16.28987 q -1.944512,0 -3.228624,0.84384 -1.284111,0.80716 -2.054578,2.12796 -0.733778,1.3208 -1.027289,2.75167 h 10.859914 q 0.220134,-2.42147 -0.843845,-4.07247 -1.027289,-1.651 -3.705578,-1.651 z m 9.979366,16.21649 q -0.880534,0 -1.210734,-0.73377 -0.3302,-0.73378 0.366889,-1.50425 l 10.126137,-11.37356 -6.163736,-10.5664 q -0.513644,-0.88054 -0.146755,-1.54094 0.366889,-0.6604 1.284111,-0.6604 0.550334,0 0.843845,0.25683 0.3302,0.25682 0.697089,0.88053 l 5.503335,9.64918 8.585203,-9.86931 q 0.807155,-0.91723 1.724378,-0.91723 0.843845,0 1.174045,0.73378 0.366889,0.69709 -0.293511,1.46756 l -9.612492,10.85991 6.493935,11.11674 q 0.513645,0.84384 0.110067,1.54093 -0.366889,0.6604 -1.247423,0.6604 -0.587022,0 -0.917222,-0.25682 -0.293512,-0.25682 -0.660401,-0.88053 l -5.870224,-10.16283 -9.098847,10.38296 q -0.807156,0.91722 -1.687689,0.91722 z m 32.799856,0.0734 q -2.45816,0 -4.842939,-0.58702 -2.34809,-0.58702 -4.182535,-1.94451 -0.550333,-0.36689 -0.6604,-0.88054 -0.110067,-0.55033 0.146756,-1.02729 0.256822,-0.47695 0.733778,-0.62371 0.513644,-0.14675 1.174044,0.25683 1.761068,1.24742 3.705579,1.68768 1.981197,0.44027 4.182537,0.44027 2.9718,0 4.76955,-1.21073 1.79776,-1.24742 1.79776,-3.37538 0,-1.46756 -1.06398,-2.49485 -1.06398,-1.06397 -3.74226,-1.651 l -3.77896,-0.91722 q -2.568225,-0.62371 -4.109158,-2.12796 -1.540934,-1.50424 -1.540934,-4.32929 0,-2.38477 1.284111,-4.10915 1.320801,-1.72438 3.522135,-2.67829 2.201336,-0.95391 4.842936,-0.95391 2.12795,0 4.36598,0.62371 2.23802,0.62371 3.92571,2.05458 0.47696,0.36689 0.55033,0.91722 0.11007,0.55033 -0.14675,1.02729 -0.25682,0.44026 -0.77047,0.55033 -0.51364,0.11007 -1.17404,-0.36689 -1.43087,-1.13735 -3.22863,-1.61431 -1.76106,-0.51364 -3.59551,-0.51364 -1.87113,0 -3.33869,0.62371 -1.467555,0.58702 -2.348089,1.68769 -0.843844,1.06398 -0.843844,2.56822 0,1.87113 0.917222,2.75167 0.953911,0.88053 2.788361,1.35749 l 3.81564,0.88053 q 3.44876,0.80716 5.06307,2.45816 1.651,1.61431 1.651,3.92571 0,2.49484 -1.35749,4.18253 -1.3208,1.68769 -3.55882,2.56823 -2.23803,0.84384 -4.953,0.84384 z m 13.42813,6.53063 q -0.69709,0 -1.02729,-0.47696 -0.3302,-0.44027 -0.18345,-1.24742 l 3.44876,-21.71983 q 0.22013,-1.50425 1.68769,-1.50425 1.46756,0 1.17404,1.72438 l -0.22013,1.50425 q 1.02729,-1.57763 2.60491,-2.42147 1.61431,-0.88053 3.6322,-0.88053 3.11856,0 4.98969,2.05457 1.90783,2.05458 1.90783,5.57672 0,2.93511 -1.06398,5.42995 -1.02729,2.45816 -3.04518,3.96241 -1.9812,1.46755 -4.84293,1.46755 -1.98121,0 -3.59552,-0.91722 -1.61431,-0.95391 -2.34809,-2.86174 l -1.43086,8.87872 q -0.22014,1.43087 -1.68769,1.43087 z m 8.69527,-8.91541 q 2.05457,0 3.44875,-1.13735 1.39418,-1.13736 2.12796,-3.00849 0.73378,-1.90783 0.73378,-4.21923 0,-2.6416 -1.28411,-3.99909 -1.28412,-1.35749 -3.52214,-1.35749 -2.05458,0 -3.44876,1.13736 -1.39417,1.10067 -2.12795,3.00849 -0.73378,1.90782 -0.73378,4.21922 0,2.60492 1.28411,3.99909 1.28411,1.35749 3.52214,1.35749 z"
       id="text4-3-8-3"
       aria-label="eXSp" />
    <g
       id="g3-6-6"
       transform="rotate(12.252226,463.4027,40.135883)"
       inkscape:transform-center-x="-0.94996498"
       inkscape:transform-center-y="-0.066505451">
      <path
         class="cls-3"
         d="m 139.10715,192.58632 c -0.38365,1.15094 -3.61423,1.2567 -4.363,0.94449 -0.38894,-0.1614 -1.10149,-1.43538 -1.83174,-1.43538 -0.45773,0 -0.58653,-0.3399 -0.96489,-0.28699 v -0.95779 c 0.41011,-0.0291 1.16152,-0.77787 1.28852,-0.79375 1.56369,-0.0688 2.86796,-0.7247 3.6326,-0.38074 0.76465,0.34396 2.60363,1.79097 2.23851,2.91016 z"
         id="path14-8-4-2"
         style="fill:#010101;stroke:#000000;stroke-width:0.264583"
         sodipodi:nodetypes="ccscccsc" />
      <line
         class="cls-4"
         x1="138.4827"
         y1="192.20264"
         x2="140.0464"
         y2="192.68683"
         id="line14-0-3-9"
         style="fill:none;stroke:#010101;stroke-width:0.767292px;stroke-linecap:round;stroke-miterlimit:10" />
      <line
         class="cls-4"
         x1="141.6339"
         y1="191.77138"
         x2="140.0464"
         y2="192.68683"
         id="line15-2-3-1"
         style="fill:none;stroke:#010101;stroke-width:0.767292px;stroke-linecap:round;stroke-miterlimit:10" />
      <line
         class="cls-4"
         x1="141.00154"
         y1="194.26639"
         x2="140.08609"
         y2="192.68153"
         id="line16-1-3-2"
         style="fill:none;stroke:#010101;stroke-width:0.767292px;stroke-linecap:round;stroke-miterlimit:10" />
    </g>
    <path
       id="path1-0-8-7"
       style="fill:none;fill-opacity:0.74902;stroke:#732db0;stroke-width:1.2"
       d="m 134.91758,151.62268 c -0.469,-0.45181 -0.85643,-0.96836 -1.15025,-1.54906 -2.07655,-4.10408 1.19823,-10.07749 7.4757,-14.36913 m 13.10267,-4.82732 c 0.36585,-0.0272 0.72639,-0.044 1.08086,-0.0503 4.08285,-0.0725 7.36193,1.24162 8.69987,3.88592 2.41765,4.77826 -2.41856,12.09044 -10.80199,16.33221 -5.19346,2.62775 -10.52991,3.46072 -14.41388,2.57816"
       sodipodi:nodetypes="csccsssc" />
    <path
       style="color:#000000;fill:#bf3844;-inkscape-stroke:none"
       d="m 141.98625,138.39095 c -2.85593,2.35794 -4.59121,5.21489 -4.39574,7.79486 l 1.09669,-0.0821 c -0.15198,-2.00598 1.31747,-4.64872 4.00013,-6.8636 z m 11.56184,-4.46877 0.004,1.09881 c 2.59558,-0.0111 4.52646,0.83891 5.29665,2.3611 0.71001,1.40327 0.38052,3.25356 -0.89161,5.17696 -1.27212,1.9234 -3.46663,3.85318 -6.26129,5.26719 -3.89277,1.96963 -7.90346,2.38354 -10.37166,1.46095 l -0.3864,1.03167 c 2.91808,1.09075 7.15116,0.56472 11.2545,-1.51146 2.94582,-1.4905 5.27824,-3.51625 6.68315,-5.64042 1.40491,-2.12417 1.90168,-4.41361 0.95621,-6.28222 -1.02558,-2.02696 -3.44311,-2.9747 -6.28391,-2.96258 z"
       id="path1-6-5-6-0"
       sodipodi:nodetypes="cccccccsssccsssc" />
    <path
       id="path1-6-8-1-0-9"
       style="fill:none;fill-opacity:0.74902;stroke:#109345"
       d="m 151.07443,138.07819 c 1.66386,-0.0995 3.01817,0.38969 3.55063,1.44203 0.90436,1.7874 -0.90471,4.52264 -4.04068,6.10935 -2.78943,1.41137 -5.68913,1.43862 -6.9324,0.16948"
       sodipodi:nodetypes="cssc" />
    <ellipse
       style="fill:#4584bc;fill-opacity:0.870588;stroke-width:2.26743;stroke-dasharray:none"
       id="path1-6-8-8-1-4-3"
       cx="68.839928"
       cy="194.4135"
       rx="2.153666"
       ry="1.2275143"
       transform="rotate(-26.83808)" />
    <path
       style="fill:none;stroke:#000000;stroke-width:2.9;stroke-linecap:round;stroke-linejoin:miter;stroke-dasharray:none;stroke-opacity:1"
       d="m 144.82306,139.49502 -8.92027,14.76011"
       id="path3-5-8-6"
       sodipodi:nodetypes="cc" />
    <path
       style="fill:none;stroke:#000000;stroke-width:2.9;stroke-linecap:round;stroke-linejoin:miter;stroke-dasharray:none;stroke-opacity:1"
       d="m 144.82306,139.49502 -7.11561,-18.99198"
       id="path2-0-8-6"
       sodipodi:nodetypes="cc" />
    <path
       style="fill:none;stroke:#000000;stroke-width:2.6;stroke-linecap:round;stroke-linejoin:miter;stroke-dasharray:none;stroke-opacity:1"
       d="m 156.98026,120.34512 c 0,0 -2.47846,-0.31776 -2.9151,0.40188 -0.87262,1.43821 2.85227,4.09983 1.97954,5.53799 -0.8735,1.4394 -4.95751,-0.63614 -5.83111,0.8032 -0.8727,1.4379 2.85144,4.09962 1.97861,5.53743 -0.87371,1.43956 -4.95809,-0.63678 -5.83203,0.80265 -0.87258,1.43766 2.85252,4.10056 1.97769,5.53686 -0.43915,0.72096 -2.92433,0.39629 -2.92433,0.39629"
       id="path1"
       sodipodi:nodetypes="cssssssc" />
  </g>
</svg>
