<?xml version="1.0" encoding="UTF-8" standalone="no"?>
<!-- Created with Inkscape (http://www.inkscape.org/) -->

<svg
   width="115.07808mm"
   height="40.03949mm"
   viewBox="0 0 115.07808 40.03949"
   version="1.1"
   id="svg1"
   inkscape:version="1.3.2 (091e20ef0f, 2023-11-25, custom)"
   sodipodi:docname="exspy-banner-dark.svg"
   xmlns:inkscape="http://www.inkscape.org/namespaces/inkscape"
   xmlns:sodipodi="http://sodipodi.sourceforge.net/DTD/sodipodi-0.dtd"
   xmlns="http://www.w3.org/2000/svg"
   xmlns:svg="http://www.w3.org/2000/svg">
  <sodipodi:namedview
     id="namedview1"
     pagecolor="#ffffff"
     bordercolor="#666666"
     borderopacity="1.0"
     inkscape:showpageshadow="2"
     inkscape:pageopacity="0.0"
     inkscape:pagecheckerboard="0"
     inkscape:deskcolor="#d1d1d1"
     inkscape:document-units="mm"
     inkscape:zoom="0.69486532"
     inkscape:cx="149.66929"
     inkscape:cy="65.480315"
     inkscape:window-width="1920"
     inkscape:window-height="1149"
     inkscape:window-x="0"
     inkscape:window-y="27"
     inkscape:window-maximized="1"
     inkscape:current-layer="layer1" />
  <defs
     id="defs1" />
  <g
     inkscape:label="Layer 1"
     inkscape:groupmode="layer"
     id="layer1"
     transform="translate(-65.352082,-131.49791)">
    <path
       style="font-style:italic;font-size:36.6889px;line-height:1.25;font-family:Nunito;-inkscape-font-specification:'Nunito Italic';fill:#ffffff;stroke-width:0.264583"
       d="m 73.643773,158.02399 q -3.815646,0 -6.053668,-2.09127 -2.238023,-2.12796 -2.238023,-5.79685 0,-2.89842 1.174044,-5.2832 1.174045,-2.42147 3.302001,-3.85233 2.127957,-1.46756 5.063069,-1.46756 2.788356,0 4.402668,1.28411 1.614311,1.24743 2.201334,3.302 0.587022,2.01789 0.3302,4.25592 -0.110067,0.62371 -0.366889,0.84384 -0.220134,0.18345 -0.770467,0.18345 H 68.250505 q -0.256823,2.86173 1.210733,4.54942 1.467556,1.68769 4.329291,1.68769 1.3208,0 2.531534,-0.29351 1.247422,-0.3302 2.384778,-1.10067 0.807156,-0.51364 1.320801,-0.18344 0.513644,0.29351 0.513644,0.9906 0,0.6604 -0.733778,1.17404 -1.247422,0.88053 -2.935112,1.35749 -1.687689,0.44027 -3.228623,0.44027 z m 1.210734,-16.28987 q -1.944512,0 -3.228623,0.84384 -1.284112,0.80716 -2.054579,2.12796 -0.733778,1.3208 -1.027289,2.75166 H 79.40393 q 0.220134,-2.42146 -0.843844,-4.07246 -1.02729,-1.651 -3.705579,-1.651 z m 9.979366,16.21649 q -0.880534,0 -1.210734,-0.73378 -0.3302,-0.73378 0.366889,-1.50424 L 94.116165,144.33903 87.95243,133.77262 q -0.513645,-0.88053 -0.146756,-1.54093 0.366889,-0.6604 1.284111,-0.6604 0.550334,0 0.843845,0.25682 0.3302,0.25682 0.697089,0.88054 l 5.503335,9.64918 8.585206,-9.86932 q 0.80715,-0.91722 1.72438,-0.91722 0.84384,0 1.17404,0.73378 0.36689,0.69709 -0.29351,1.46755 l -9.612493,10.85992 6.493933,11.11673 q 0.51365,0.84385 0.11007,1.54094 -0.36689,0.6604 -1.24742,0.6604 -0.58703,0 -0.91723,-0.25682 -0.29351,-0.25683 -0.6604,-0.88054 l -5.87022,-10.16282 -9.098848,10.38296 q -0.807155,0.91722 -1.687689,0.91722 z m 32.799847,0.0734 q -2.45815,0 -4.84293,-0.58703 -2.34809,-0.58702 -4.18253,-1.94451 -0.55034,-0.36689 -0.6604,-0.88053 -0.11007,-0.55033 0.14675,-1.02729 0.25682,-0.47696 0.73378,-0.62371 0.51364,-0.14676 1.17404,0.25682 1.76107,1.24742 3.70558,1.68769 1.9812,0.44027 4.18254,0.44027 2.9718,0 4.76955,-1.21074 1.79776,-1.24742 1.79776,-3.37538 0,-1.46755 -1.06398,-2.49484 -1.06398,-1.06398 -3.74227,-1.651 l -3.77895,-0.91722 q -2.56823,-0.62371 -4.10916,-2.12796 -1.54093,-1.50424 -1.54093,-4.32929 0,-2.38478 1.28411,-4.10916 1.3208,-1.72438 3.52213,-2.67829 2.20134,-0.95391 4.84294,-0.95391 2.12795,0 4.36598,0.62371 2.23802,0.62371 3.92571,2.05458 0.47695,0.36689 0.55033,0.91722 0.11007,0.55034 -0.14675,1.02729 -0.25683,0.44027 -0.77047,0.55034 -0.51364,0.11006 -1.17404,-0.36689 -1.43087,-1.13736 -3.22863,-1.61431 -1.76107,-0.51365 -3.59551,-0.51365 -1.87113,0 -3.33869,0.62371 -1.46756,0.58703 -2.34809,1.68769 -0.84384,1.06398 -0.84384,2.56823 0,1.87113 0.91722,2.75166 0.95391,0.88054 2.78835,1.35749 l 3.81565,0.88054 q 3.44876,0.80715 5.06307,2.45815 1.651,1.61431 1.651,3.92571 0,2.49485 -1.35749,4.18254 -1.3208,1.68769 -3.55882,2.56822 -2.23803,0.84385 -4.95301,0.84385 z m 13.42814,6.53062 q -0.69709,0 -1.02729,-0.47695 -0.3302,-0.44027 -0.18345,-1.24743 l 3.44876,-21.71983 q 0.22013,-1.50424 1.68769,-1.50424 1.46755,0 1.17404,1.72438 l -0.22013,1.50424 q 1.02729,-1.57762 2.60491,-2.42147 1.61431,-0.88053 3.6322,-0.88053 3.11856,0 4.98969,2.05458 1.90783,2.05458 1.90783,5.57671 0,2.93511 -1.06398,5.42996 -1.02729,2.45816 -3.04518,3.9624 -1.9812,1.46756 -4.84294,1.46756 -1.9812,0 -3.59551,-0.91723 -1.61431,-0.95391 -2.34809,-2.86173 l -1.43086,8.87871 q -0.22014,1.43087 -1.68769,1.43087 z m 8.69527,-8.9154 q 2.05457,0 3.44875,-1.13736 1.39418,-1.13735 2.12796,-3.00849 0.73378,-1.90782 0.73378,-4.21922 0,-2.6416 -1.28412,-3.99909 -1.28411,-1.35749 -3.52213,-1.35749 -2.05458,0 -3.44876,1.13736 -1.39417,1.10066 -2.12795,3.00849 -0.73378,1.90782 -0.73378,4.21922 0,2.60491 1.28411,3.99909 1.28411,1.35749 3.52214,1.35749 z"
       id="text4-3-8-3-6"
       aria-label="eXSp" />
    <g
       id="g3-6-6-5"
       transform="rotate(12.252226,397.18833,118.30841)"
       inkscape:transform-center-x="-0.94996498"
       inkscape:transform-center-y="-0.066505451">
      <path
         class="cls-3"
         d="m 139.10715,192.58632 c -0.38365,1.15094 -3.61423,1.2567 -4.363,0.94449 -0.38894,-0.1614 -1.10149,-1.43538 -1.83174,-1.43538 -0.45773,0 -0.58653,-0.3399 -0.96489,-0.28699 v -0.95779 c 0.41011,-0.0291 1.16152,-0.77787 1.28852,-0.79375 1.56369,-0.0688 2.86796,-0.7247 3.6326,-0.38074 0.76465,0.34396 2.60363,1.79097 2.23851,2.91016 z"
         id="path14-8-4-2-5"
         style="fill:#ffffff;stroke:#ffffff;stroke-width:0.264583"
         sodipodi:nodetypes="ccscccsc" />
      <line
         class="cls-4"
         x1="138.4827"
         y1="192.20264"
         x2="140.0464"
         y2="192.68683"
         id="line14-0-3-9-4"
         style="fill:none;stroke:#ffffff;stroke-width:0.767292px;stroke-linecap:round;stroke-miterlimit:10" />
      <line
         class="cls-4"
         x1="141.6339"
         y1="191.77138"
         x2="140.0464"
         y2="192.68683"
         id="line15-2-3-1-76"
         style="fill:none;stroke:#ffffff;stroke-width:0.767292px;stroke-linecap:round;stroke-miterlimit:10" />
      <line
         class="cls-4"
         x1="141.00154"
         y1="194.26639"
         x2="140.08609"
         y2="192.68153"
         id="line16-1-3-2-56"
         style="fill:none;stroke:#ffffff;stroke-width:0.767292px;stroke-linecap:round;stroke-miterlimit:10" />
    </g>
    <path
       id="path1-0-8-7-9"
       style="fill:none;fill-opacity:0.74902;stroke:#732db0;stroke-width:1.2"
       d="m 149.99882,167.45494 c -0.469,-0.4518 -0.85643,-0.96835 -1.15024,-1.54905 -2.07656,-4.10408 1.19823,-10.07749 7.47569,-14.36914 m 13.10268,-4.82731 c 0.36585,-0.0272 0.72638,-0.044 1.08086,-0.0503 4.08284,-0.0725 7.36193,1.24161 8.69986,3.88591 2.41766,4.77827 -2.41855,12.09045 -10.80198,16.33222 -5.19347,2.62774 -10.52992,3.46072 -14.41388,2.57816"
       sodipodi:nodetypes="csccsssc" />
    <path
       style="color:#000000;fill:#bf3844;-inkscape-stroke:none"
       d="m 157.06749,154.22321 c -2.85593,2.35794 -4.5912,5.21489 -4.39573,7.79486 l 1.09669,-0.0821 c -0.15198,-2.00598 1.31747,-4.64872 4.00012,-6.86361 z m 11.56185,-4.46876 0.004,1.09881 c 2.59557,-0.0111 4.52646,0.83891 5.29664,2.36109 0.71002,1.40327 0.38052,3.25356 -0.8916,5.17697 -1.27212,1.9234 -3.46664,3.85317 -6.26129,5.26719 -3.89278,1.96963 -7.90347,2.38354 -10.37166,1.46095 l -0.3864,1.03166 c 2.91808,1.09076 7.15116,0.56472 11.25449,-1.51146 2.94583,-1.4905 5.27825,-3.51625 6.68316,-5.64042 1.40491,-2.12416 1.90167,-4.4136 0.95621,-6.28221 -1.02558,-2.02696 -3.44311,-2.9747 -6.28391,-2.96258 z"
       id="path1-6-5-6-0-3"
       sodipodi:nodetypes="cccccccsssccsssc" />
    <path
       id="path1-6-8-1-0-9-7"
       style="fill:none;fill-opacity:0.74902;stroke:#109345"
       d="m 166.15568,153.91045 c 1.66386,-0.0995 3.01817,0.38969 3.55062,1.44204 0.90436,1.78739 -0.90471,4.52264 -4.04067,6.10935 -2.78943,1.41137 -5.68914,1.43861 -6.9324,0.16948"
       sodipodi:nodetypes="cssc" />
    <ellipse
       style="fill:#4584bc;fill-opacity:0.870588;stroke-width:2.26743;stroke-dasharray:none"
       id="path1-6-8-8-1-4-3-4"
       cx="75.148918"
       cy="215.34918"
       rx="2.153666"
       ry="1.2275143"
       transform="rotate(-26.83808)" />
    <path
       style="fill:none;stroke:#ffffff;stroke-width:2.9;stroke-linecap:round;stroke-linejoin:miter;stroke-dasharray:none;stroke-opacity:1"
       d="m 159.90431,155.32729 -8.92027,14.76011"
       id="path3-5-8-6-5"
       sodipodi:nodetypes="cc" />
    <path
       style="fill:none;stroke:#ffffff;stroke-width:2.9;stroke-linecap:round;stroke-linejoin:miter;stroke-dasharray:none;stroke-opacity:1"
       d="M 159.90431,155.32729 152.7887,136.33531"
       id="path2-0-8-6-4"
       sodipodi:nodetypes="cc" />
    <path
       style="fill:none;stroke:#ffffff;stroke-width:2.6;stroke-linecap:round;stroke-linejoin:miter;stroke-dasharray:none;stroke-opacity:1"
       d="m 172.06151,136.17739 c 0,0 -2.47846,-0.31776 -2.9151,0.40188 -0.87262,1.43821 2.85227,4.09983 1.97954,5.53799 -0.8735,1.4394 -4.95751,-0.63614 -5.83111,0.8032 -0.8727,1.4379 2.85144,4.09962 1.97861,5.53743 -0.87371,1.43956 -4.95809,-0.63678 -5.83203,0.80265 -0.87258,1.43766 2.85252,4.10056 1.97769,5.53686 -0.43915,0.72096 -2.92433,0.39629 -2.92433,0.39629"
       id="path1-7"
       sodipodi:nodetypes="cssssssc" />
  </g>
</svg>
