<?xml version="1.0" encoding="UTF-8" standalone="no"?>
<!-- Created with Inkscape (http://www.inkscape.org/) -->

<svg
   width="143.08333mm"
   height="33.05677mm"
   viewBox="0 0 143.08333 33.05677"
   version="1.1"
   id="svg1"
   inkscape:version="1.3.2 (091e20ef0f, 2023-11-25, custom)"
   sodipodi:docname="holospy-banner-dark.svg"
   xmlns:inkscape="http://www.inkscape.org/namespaces/inkscape"
   xmlns:sodipodi="http://sodipodi.sourceforge.net/DTD/sodipodi-0.dtd"
   xmlns="http://www.w3.org/2000/svg"
   xmlns:svg="http://www.w3.org/2000/svg">
  <sodipodi:namedview
     id="namedview1"
     pagecolor="#ffffff"
     bordercolor="#666666"
     borderopacity="1.0"
     inkscape:showpageshadow="2"
     inkscape:pageopacity="0.0"
     inkscape:pagecheckerboard="0"
     inkscape:deskcolor="#d1d1d1"
     inkscape:document-units="mm"
     inkscape:zoom="0.69486532"
     inkscape:cx="270.55603"
     inkscape:cy="61.882495"
     inkscape:window-width="1680"
     inkscape:window-height="1026"
     inkscape:window-x="1920"
     inkscape:window-y="0"
     inkscape:window-maximized="1"
     inkscape:current-layer="layer1" />
  <defs
     id="defs1">
    <filter
       style="color-interpolation-filters:sRGB"
       inkscape:label="Invert"
       id="filter18-5"
       x="0"
       y="0"
       width="1"
       height="1">
      <feColorMatrix
         type="hueRotate"
         values="180"
         result="color1"
         id="feColorMatrix17-6" />
      <feColorMatrix
         values="-1 0 0 0 1 0 -1 0 0 1 0 0 -1 0 1 -0.21 -0.72 -0.07 2 0 "
         result="color2"
         id="feColorMatrix18-2" />
    </filter>
    <filter
       style="color-interpolation-filters:sRGB"
       inkscape:label="Invert"
       id="filter16-9"
       x="0"
       y="0"
       width="1"
       height="1">
      <feColorMatrix
         type="hueRotate"
         values="180"
         result="color1"
         id="feColorMatrix15-1" />
      <feColorMatrix
         values="-1 0 0 0 1 0 -1 0 0 1 0 0 -1 0 1 -0.21 -0.72 -0.07 2 0 "
         result="color2"
         id="feColorMatrix16-2" />
    </filter>
    <filter
       style="color-interpolation-filters:sRGB"
       inkscape:label="Invert"
       id="filter14-7"
       x="0"
       y="0"
       width="1"
       height="1">
      <feColorMatrix
         type="hueRotate"
         values="180"
         result="color1"
         id="feColorMatrix13-0" />
      <feColorMatrix
         values="-1 0 0 0 1 0 -1 0 0 1 0 0 -1 0 1 -0.21 -0.72 -0.07 2 0 "
         result="color2"
         id="feColorMatrix14-9" />
    </filter>
    <filter
       style="color-interpolation-filters:sRGB"
       inkscape:label="Invert"
       id="filter12-3"
       x="0"
       y="0"
       width="1"
       height="1">
      <feColorMatrix
         type="hueRotate"
         values="180"
         result="color1"
         id="feColorMatrix11-6" />
      <feColorMatrix
         values="-1 0 0 0 1 0 -1 0 0 1 0 0 -1 0 1 -0.21 -0.72 -0.07 2 0 "
         result="color2"
         id="feColorMatrix12-0" />
    </filter>
    <filter
       style="color-interpolation-filters:sRGB"
       inkscape:label="Invert"
       id="filter10-6"
       x="0"
       y="0"
       width="1"
       height="1">
      <feColorMatrix
         type="hueRotate"
         values="180"
         result="color1"
         id="feColorMatrix9-2" />
      <feColorMatrix
         values="-1 0 0 0 1 0 -1 0 0 1 0 0 -1 0 1 -0.21 -0.72 -0.07 2 0 "
         result="color2"
         id="feColorMatrix10-6" />
    </filter>
    <filter
       style="color-interpolation-filters:sRGB"
       inkscape:label="Invert"
       id="filter8-1"
       x="0"
       y="0"
       width="1.0396067"
       height="1.07947">
      <feColorMatrix
         type="hueRotate"
         values="180"
         result="color1"
         id="feColorMatrix7-8" />
      <feColorMatrix
         values="-1 0 0 0 1 0 -1 0 0 1 0 0 -1 0 1 -0.21 -0.72 -0.07 2 0 "
         result="color2"
         id="feColorMatrix8-7" />
    </filter>
    <filter
       style="color-interpolation-filters:sRGB"
       inkscape:label="Invert"
       id="filter6-9"
       x="-0.074331647"
       y="-0.025336246"
       width="1.1553289"
       height="1.056284">
      <feColorMatrix
         type="hueRotate"
         values="180"
         result="color1"
         id="feColorMatrix5-2" />
      <feColorMatrix
         values="-1 0 0 0 1 0 -1 0 0 1 0 0 -1 0 1 -0.21 -0.72 -0.07 2 0 "
         result="color2"
         id="feColorMatrix6-0" />
    </filter>
  </defs>
  <g
     inkscape:label="Layer 1"
     inkscape:groupmode="layer"
     id="layer1"
     transform="translate(-33.60208,-132.02707)">
    <g
       id="g2"
       transform="translate(-187.68999,-229.92292)">
      <path
         style="font-weight:600;font-size:36.689px;line-height:1.25;font-family:Nunito;-inkscape-font-specification:'Nunito Semi-Bold';fill:#ffffff;stroke-width:0.264583"
         d="m 223.12652,388.43944 q -1.83445,0 -1.83445,-1.87114 v -22.63711 q 0,-1.87114 1.83445,-1.87114 1.87114,0 1.87114,1.87114 v 9.13556 q 0.91722,-1.54094 2.45816,-2.31141 1.57763,-0.80716 3.52214,-0.80716 6.3472,0 6.3472,7.19105 v 9.42907 q 0,1.87114 -1.83445,1.87114 -1.87114,0 -1.87114,-1.87114 v -9.20894 q 0,-2.3114 -0.91723,-3.37539 -0.88053,-1.06398 -2.78836,-1.06398 -2.23803,0 -3.59552,1.43087 -1.3208,1.39419 -1.3208,3.70559 v 8.51185 q 0,1.87114 -1.87114,1.87114 z"
         id="text4-3-8-3-1-7"
         aria-label="h" />
      <path
         style="font-weight:200;font-size:138.667px;line-height:1.25;font-family:Nunito;-inkscape-font-specification:'Nunito Ultra-Light';fill:#cccccc;stroke-width:0.999999;filter:url(#filter18-5)"
         d="m 104.24405,1396.117 c -6.101354,0 -11.416924,-1.4329 -15.946704,-4.2987 -4.43735,-2.8658 -7.90402,-6.8871 -10.40003,-12.064 -2.40356,-5.1769 -3.60534,-11.2783 -3.60534,-18.3041 0,-7.0258 1.20178,-13.1271 3.60534,-18.304 2.49601,-5.1769 5.96268,-9.1983 10.40003,-12.0641 4.52978,-2.8657 9.84535,-4.2986 15.946704,-4.2986 6.10135,0 11.37069,1.4329 15.80804,4.2986 4.52979,2.8658 7.99646,6.8872 10.40002,12.0641 2.49601,5.1769 3.74401,11.2782 3.74401,18.304 0,7.0258 -1.248,13.1272 -3.74401,18.3041 -2.40356,5.1769 -5.87023,9.1982 -10.40002,12.064 -4.43735,2.8658 -9.70669,4.2987 -15.80804,4.2987 z m 0,-5.408 c 7.39557,0 13.21959,-2.5423 17.47204,-7.6267 4.3449,-5.1769 6.51735,-12.3876 6.51735,-21.6321 0,-9.2444 -2.17245,-16.4089 -6.51735,-21.4934 -4.25245,-5.1769 -10.07647,-7.7653 -17.47204,-7.7653 -7.303134,0 -13.127144,2.5884 -17.472044,7.7653 -4.3449,5.0845 -6.51735,12.249 -6.51735,21.4934 0,9.2445 2.17245,16.4552 6.51735,21.6321 4.3449,5.0844 10.16891,7.6267 17.472044,7.6267 z m 142.82712,5.408 c -6.10135,0 -11.41692,-1.4329 -15.94671,-4.2987 -4.43734,-2.8658 -7.90401,-6.8871 -10.40002,-12.064 -2.40357,-5.1769 -3.60535,-11.2783 -3.60535,-18.3041 0,-7.0258 1.20178,-13.1271 3.60535,-18.304 2.49601,-5.1769 5.96268,-9.1983 10.40002,-12.0641 4.52979,-2.8657 9.84536,-4.2986 15.94671,-4.2986 6.10135,0 11.37069,1.4329 15.80804,4.2986 4.52979,2.8658 7.99646,6.8872 10.40002,12.0641 2.49601,5.1769 3.74401,11.2782 3.74401,18.304 0,7.0258 -1.248,13.1272 -3.74401,18.3041 -2.40356,5.1769 -5.87023,9.1982 -10.40002,12.064 -4.43735,2.8658 -9.70669,4.2987 -15.80804,4.2987 z m 0,-5.408 c 7.39557,0 13.21959,-2.5423 17.47204,-7.6267 4.3449,-5.1769 6.51735,-12.3876 6.51735,-21.6321 0,-9.2444 -2.17245,-16.4089 -6.51735,-21.4934 -4.25245,-5.1769 -10.07647,-7.7653 -17.47204,-7.7653 -7.30313,0 -13.12715,2.5884 -17.47205,7.7653 -4.34489,5.0845 -6.51734,12.249 -6.51734,21.4934 0,9.2445 2.17245,16.4552 6.51734,21.6321 4.3449,5.0844 10.16892,7.6267 17.47205,7.6267 z"
         id="text4-3-8-3-1-63-4-5-9-3-6"
         aria-label="h o  o"
         sodipodi:nodetypes="sccsccsccsccsscscscscssccsccsccsccsscscscscs"
         transform="matrix(0.26458333,0,0,0.26458333,224.58473,19.049916)" />
      <path
         style="font-weight:200;font-size:138.667px;line-height:1.25;font-family:Nunito;-inkscape-font-specification:'Nunito Ultra-Light';fill:#cccccc;stroke-width:0.999999;filter:url(#filter16-9)"
         d="m 96.412036,1396.1179 c -6.10135,0 -11.41692,-1.4329 -15.9467,-4.2987 -4.43735,-2.8658 -7.90402,-6.8871 -10.40003,-12.064 -2.40356,-5.1769 -3.60534,-11.2783 -3.60534,-18.3041 0,-7.0258 1.20178,-13.1271 3.60534,-18.304 2.49601,-5.1769 5.96268,-9.1983 10.40003,-12.0641 4.52978,-2.8657 9.84535,-4.2986 15.9467,-4.2986 6.101354,0 11.370694,1.4329 15.808044,4.2986 4.52979,2.8658 7.99646,6.8872 10.40002,12.0641 2.49601,5.1769 3.74401,11.2782 3.74401,18.304 0,7.0258 -1.248,13.1272 -3.74401,18.3041 -2.40356,5.1769 -5.87023,9.1982 -10.40002,12.064 -4.43735,2.8658 -9.70669,4.2987 -15.808044,4.2987 z m 0,-5.4079 c 7.395574,0 13.219594,-2.5424 17.472044,-7.6268 4.3449,-5.1769 6.51735,-12.3876 6.51735,-21.6321 0,-9.2444 -2.17245,-16.4088 -6.51735,-21.4934 -4.25245,-5.1769 -10.07647,-7.7653 -17.472044,-7.7653 -7.30313,0 -13.12714,2.5884 -17.47204,7.7653 -4.3449,5.0845 -6.51735,12.249 -6.51735,21.4934 0,9.2445 2.17245,16.4552 6.51735,21.6321 4.3449,5.0844 10.16891,7.6268 17.47204,7.6268 z m 142.827124,5.4079 c -6.10135,0 -11.41692,-1.4329 -15.94671,-4.2987 -4.43734,-2.8658 -7.90401,-6.8871 -10.40002,-12.064 -2.40357,-5.1769 -3.60535,-11.2783 -3.60535,-18.3041 0,-7.0258 1.20178,-13.1271 3.60535,-18.304 2.49601,-5.1769 5.96268,-9.1983 10.40002,-12.0641 4.52979,-2.8657 9.84536,-4.2986 15.94671,-4.2986 6.10135,0 11.37069,1.4329 15.80804,4.2986 4.52979,2.8658 7.99646,6.8872 10.40002,12.0641 2.49601,5.1769 3.74401,11.2782 3.74401,18.304 0,7.0258 -1.248,13.1272 -3.74401,18.3041 -2.40356,5.1769 -5.87023,9.1982 -10.40002,12.064 -4.43735,2.8658 -9.70669,4.2987 -15.80804,4.2987 z m 0,-5.4079 c 7.39557,0 13.21959,-2.5424 17.47204,-7.6268 4.3449,-5.1769 6.51735,-12.3876 6.51735,-21.6321 0,-9.2444 -2.17245,-16.4088 -6.51735,-21.4934 -4.25245,-5.1769 -10.07647,-7.7653 -17.47204,-7.7653 -7.30313,0 -13.12715,2.5884 -17.47205,7.7653 -4.34489,5.0845 -6.51734,12.249 -6.51734,21.4934 0,9.2445 2.17245,16.4552 6.51734,21.6321 4.3449,5.0844 10.16892,7.6268 17.47205,7.6268 z"
         id="text4-3-8-3-1-63-4-5-7-2-3"
         aria-label="h o  o"
         sodipodi:nodetypes="sccsccsccsccsscscscscssccsccsccsccsscscscscs"
         transform="matrix(0.26458333,0,0,0.26458333,224.58473,19.049916)" />
      <path
         style="font-weight:200;font-size:138.667px;line-height:1.25;font-family:Nunito;-inkscape-font-specification:'Nunito Ultra-Light';fill:#808080;stroke-width:0.999999;filter:url(#filter14-7)"
         d="m 92.244046,1396.117 c -6.10135,0 -11.41692,-1.4329 -15.9467,-4.2987 -4.43735,-2.8658 -7.90402,-6.8871 -10.40003,-12.064 -2.40356,-5.1769 -3.60534,-11.2783 -3.60534,-18.3041 0,-7.0258 1.20178,-13.1271 3.60534,-18.304 2.49601,-5.1769 5.96268,-9.1983 10.40003,-12.0641 4.52978,-2.8657 9.84535,-4.2986 15.9467,-4.2986 6.10135,0 11.370694,1.4329 15.808044,4.2986 4.52979,2.8658 7.99646,6.8872 10.40002,12.0641 2.49601,5.1769 3.74401,11.2782 3.74401,18.304 0,7.0258 -1.248,13.1272 -3.74401,18.3041 -2.40356,5.1769 -5.87023,9.1982 -10.40002,12.064 -4.43735,2.8658 -9.706694,4.2987 -15.808044,4.2987 z m 0,-5.408 c 7.39557,0 13.219594,-2.5423 17.472044,-7.6267 4.3449,-5.1769 6.51735,-12.3876 6.51735,-21.6321 0,-9.2444 -2.17245,-16.4089 -6.51735,-21.4934 -4.25245,-5.1769 -10.076474,-7.7653 -17.472044,-7.7653 -7.30313,0 -13.12714,2.5884 -17.47204,7.7653 -4.3449,5.0845 -6.51735,12.249 -6.51735,21.4934 0,9.2445 2.17245,16.4552 6.51735,21.6321 4.3449,5.0844 10.16891,7.6267 17.47204,7.6267 z m 142.827124,5.408 c -6.10135,0 -11.41692,-1.4329 -15.94671,-4.2987 -4.43734,-2.8658 -7.90401,-6.8871 -10.40002,-12.064 -2.40357,-5.1769 -3.60535,-11.2783 -3.60535,-18.3041 0,-7.0258 1.20178,-13.1271 3.60535,-18.304 2.49601,-5.1769 5.96268,-9.1983 10.40002,-12.0641 4.52979,-2.8657 9.84536,-4.2986 15.94671,-4.2986 6.10135,0 11.37069,1.4329 15.80804,4.2986 4.52979,2.8658 7.99646,6.8872 10.40002,12.0641 2.49601,5.1769 3.74401,11.2782 3.74401,18.304 0,7.0258 -1.248,13.1272 -3.74401,18.3041 -2.40356,5.1769 -5.87023,9.1982 -10.40002,12.064 -4.43735,2.8658 -9.70669,4.2987 -15.80804,4.2987 z m 0,-5.408 c 7.39557,0 13.21959,-2.5423 17.47204,-7.6267 4.3449,-5.1769 6.51735,-12.3876 6.51735,-21.6321 0,-9.2444 -2.17245,-16.4089 -6.51735,-21.4934 -4.25245,-5.1769 -10.07647,-7.7653 -17.47204,-7.7653 -7.30313,0 -13.12715,2.5884 -17.47205,7.7653 -4.34489,5.0845 -6.51734,12.249 -6.51734,21.4934 0,9.2445 2.17245,16.4552 6.51734,21.6321 4.3449,5.0844 10.16892,7.6267 17.47205,7.6267 z"
         id="text4-3-8-3-1-63-4-5-0-2"
         aria-label="h o  o"
         sodipodi:nodetypes="sccsccsccsccsscscscscssccsccsccsccsscscscscs"
         transform="matrix(0.26458333,0,0,0.26458333,224.05557,19.049916)" />
      <path
         style="font-weight:200;font-size:138.667px;line-height:1.25;font-family:Nunito;-inkscape-font-specification:'Nunito Ultra-Light';fill:#808080;stroke-width:0.999999;filter:url(#filter12-3)"
         d="m 108.24405,1396.117 c -6.10135,0 -11.416914,-1.4329 -15.946704,-4.2987 -4.43735,-2.8658 -7.90402,-6.8871 -10.40003,-12.064 -2.40356,-5.1769 -3.60534,-11.2783 -3.60534,-18.3041 0,-7.0257 1.20178,-13.1271 3.60534,-18.304 2.49601,-5.1769 5.96268,-9.1982 10.40003,-12.064 4.52978,-2.8658 9.845354,-4.2987 15.946704,-4.2987 6.10135,0 11.37069,1.4329 15.80804,4.2987 4.52979,2.8658 7.99646,6.8871 10.40002,12.064 2.49601,5.1769 3.74401,11.2783 3.74401,18.304 0,7.0258 -1.248,13.1272 -3.74401,18.3041 -2.40356,5.1769 -5.87023,9.1982 -10.40002,12.064 -4.43735,2.8658 -9.70669,4.2987 -15.80804,4.2987 z m 0,-5.408 c 7.39557,0 13.21959,-2.5422 17.47204,-7.6267 4.3449,-5.1769 6.51735,-12.3876 6.51735,-21.6321 0,-9.2444 -2.17245,-16.4089 -6.51735,-21.4933 -4.25245,-5.1769 -10.07647,-7.7654 -17.47204,-7.7654 -7.30313,0 -13.127144,2.5885 -17.472044,7.7654 -4.3449,5.0844 -6.51735,12.2489 -6.51735,21.4933 0,9.2445 2.17245,16.4552 6.51735,21.6321 4.3449,5.0845 10.168914,7.6267 17.472044,7.6267 z m 142.82712,5.408 c -6.10135,0 -11.41692,-1.4329 -15.94671,-4.2987 -4.43734,-2.8658 -7.90401,-6.8871 -10.40002,-12.064 -2.40357,-5.1769 -3.60535,-11.2783 -3.60535,-18.3041 0,-7.0257 1.20178,-13.1271 3.60535,-18.304 2.49601,-5.1769 5.96268,-9.1982 10.40002,-12.064 4.52979,-2.8658 9.84536,-4.2987 15.94671,-4.2987 6.10135,0 11.37069,1.4329 15.80804,4.2987 4.52979,2.8658 7.99646,6.8871 10.40002,12.064 2.49601,5.1769 3.74401,11.2783 3.74401,18.304 0,7.0258 -1.248,13.1272 -3.74401,18.3041 -2.40356,5.1769 -5.87023,9.1982 -10.40002,12.064 -4.43735,2.8658 -9.70669,4.2987 -15.80804,4.2987 z m 0,-5.408 c 7.39557,0 13.21959,-2.5422 17.47204,-7.6267 4.3449,-5.1769 6.51735,-12.3876 6.51735,-21.6321 0,-9.2444 -2.17245,-16.4089 -6.51735,-21.4933 -4.25245,-5.1769 -10.07647,-7.7654 -17.47204,-7.7654 -7.30313,0 -13.12715,2.5885 -17.47205,7.7654 -4.34489,5.0844 -6.51734,12.2489 -6.51734,21.4933 0,9.2445 2.17245,16.4552 6.51734,21.6321 4.3449,5.0845 10.16892,7.6267 17.47205,7.6267 z"
         id="text4-3-8-3-1-6-5-0-3-6-0"
         aria-label="h o  o"
         sodipodi:nodetypes="sccsccsccsccsscscscscssccsccsccsccsscscscscs"
         transform="matrix(0.26458333,0,0,0.26458333,225.1139,19.049916)" />
      <g
         id="text4-3-8-3-6-8-5-1-6"
         style="font-weight:200;font-size:138.667px;line-height:1.25;font-family:Nunito;-inkscape-font-specification:'Nunito Ultra-Light';fill:#000000;stroke-width:0.999999;filter:url(#filter10-6)"
         aria-label="h o  oSpy"
         transform="matrix(0.26458333,0,0,0.26458333,224.83196,204.25825)">
        <path
           d="m 99.440318,696.11788 c -6.101348,0 -11.416917,-1.43289 -15.946706,-4.29868 -4.437344,-2.86578 -7.904019,-6.88712 -10.400025,-12.06403 -2.403561,-5.1769 -3.605342,-11.27825 -3.605342,-18.30404 0,-7.02579 1.201781,-13.12714 3.605342,-18.30405 2.496006,-5.1769 5.962681,-9.19824 10.400025,-12.06403 4.529789,-2.86578 9.845358,-4.29867 15.946706,-4.29867 6.101352,0 11.370692,1.43289 15.808042,4.29867 4.52979,2.86579 7.99646,6.88713 10.40002,12.06403 2.49601,5.17691 3.74401,11.27826 3.74401,18.30405 0,7.02579 -1.248,13.12714 -3.74401,18.30404 -2.40356,5.17691 -5.87023,9.19825 -10.40002,12.06403 -4.43735,2.86579 -9.70669,4.29868 -15.808042,4.29868 z m 0,-5.40801 c 7.395572,0 13.219592,-2.54223 17.472042,-7.62669 4.3449,-5.1769 6.51735,-12.38758 6.51735,-21.63205 0,-9.24447 -2.17245,-16.40893 -6.51735,-21.49339 -4.25245,-5.1769 -10.07647,-7.76535 -17.472042,-7.76535 -7.303129,0 -13.127143,2.58845 -17.472043,7.76535 -4.344899,5.08446 -6.517349,12.24892 -6.517349,21.49339 0,9.24447 2.17245,16.45515 6.517349,21.63205 4.3449,5.08446 10.168914,7.62669 17.472043,7.62669 z m 142.827122,5.40801 c -6.10135,0 -11.41692,-1.43289 -15.94671,-4.29868 -4.43735,-2.86578 -7.90402,-6.88712 -10.40003,-12.06403 -2.40356,-5.1769 -3.60534,-11.27825 -3.60534,-18.30404 0,-7.02579 1.20178,-13.12714 3.60534,-18.30405 2.49601,-5.1769 5.96268,-9.19824 10.40003,-12.06403 4.52979,-2.86578 9.84536,-4.29867 15.94671,-4.29867 6.10135,0 11.37069,1.43289 15.80803,4.29867 4.52979,2.86579 7.99647,6.88713 10.40003,12.06403 2.49601,5.17691 3.74401,11.27826 3.74401,18.30405 0,7.02579 -1.248,13.12714 -3.74401,18.30404 -2.40356,5.17691 -5.87024,9.19825 -10.40003,12.06403 -4.43734,2.86579 -9.70668,4.29868 -15.80803,4.29868 z m 0,-5.40801 c 7.39557,0 13.21959,-2.54223 17.47204,-7.62669 4.3449,-5.1769 6.51735,-12.38758 6.51735,-21.63205 0,-9.24447 -2.17245,-16.40893 -6.51735,-21.49339 -4.25245,-5.1769 -10.07647,-7.76535 -17.47204,-7.76535 -7.30313,0 -13.12715,2.58845 -17.47205,7.76535 -4.3449,5.08446 -6.51735,12.24892 -6.51735,21.49339 0,9.24447 2.17245,16.45515 6.51735,21.63205 4.3449,5.08446 10.16892,7.62669 17.47205,7.62669 z"
           id="path12-6-5-1"
           sodipodi:nodetypes="sccsccsccsccsscscscscssccsccsccsccsscscscscs" />
        <path
           style="font-weight:600;-inkscape-font-specification:'Nunito Semi-Bold'"
           d="m 327.52631,696.25655 c -6.37868,0 -12.52625,-0.73956 -18.44271,-2.21867 -5.82401,-1.47912 -10.90847,-3.69779 -15.25337,-6.65602 -1.75645,-1.20178 -2.81956,-2.63467 -3.18934,-4.29868 -0.36978,-1.75645 -0.23111,-3.32801 0.416,-4.71468 0.73956,-1.47911 1.80267,-2.496 3.18934,-3.05067 1.47911,-0.55467 3.14312,-0.23111 4.99201,0.97067 4.16001,2.68089 8.55114,4.66845 13.17337,5.96268 4.62223,1.20178 9.66047,1.80267 15.1147,1.80267 7.8578,0 13.63559,-1.38667 17.33338,-4.16001 3.79023,-2.86579 5.68535,-6.56357 5.68535,-11.09336 0,-3.69779 -1.34045,-6.60979 -4.02135,-8.73602 -2.68089,-2.21867 -7.16446,-3.97512 -13.4507,-5.26935 l -14.83737,-3.05067 c -8.78224,-1.84889 -15.34581,-4.89957 -19.69071,-9.15202 -4.25245,-4.25246 -6.37868,-9.98403 -6.37868,-17.19471 0,-5.82401 1.52534,-10.95469 4.57601,-15.39204 3.14311,-4.43735 7.48801,-7.8578 13.03469,-10.26136 5.54669,-2.49601 11.92537,-3.74401 19.13605,-3.74401 5.73157,0 11.09336,0.73956 16.08537,2.21867 5.08446,1.47912 9.61425,3.74402 13.58937,6.79469 1.57156,1.10933 2.49601,2.44978 2.77334,4.02134 0.27733,1.57156 0.0462,3.05067 -0.69333,4.43734 -0.73956,1.29423 -1.8489,2.17245 -3.32801,2.63468 -1.47911,0.46222 -3.18934,0.0924 -5.13068,-1.10934 -3.60534,-2.40356 -7.30313,-4.11379 -11.09336,-5.13068 -3.79023,-1.10933 -7.90402,-1.664 -12.34137,-1.664 -6.8409,0 -12.29513,1.52534 -16.3627,4.57601 -3.97512,3.05067 -5.96268,7.11824 -5.96268,12.2027 0,3.88267 1.248,6.97957 3.74401,9.29069 2.49601,2.31111 6.65602,4.06756 12.48003,5.26934 l 14.6987,3.05068 c 9.24447,1.94133 16.13159,4.94578 20.66138,9.01335 4.52979,3.97512 6.79469,9.38313 6.79469,16.22404 0,5.73157 -1.52534,10.72359 -4.57601,14.97604 -3.05068,4.25245 -7.34936,7.58046 -12.89604,9.98402 -5.54668,2.31112 -12.15647,3.46668 -19.82938,3.46668 z m 63.07212,24.68273 c -4.62223,0 -6.93335,-2.35734 -6.93335,-7.07202 v -80.42687 c 0,-4.71467 2.2649,-7.07201 6.79469,-7.07201 4.62223,0 6.93335,2.35734 6.93335,7.07201 v 5.26935 c 2.03378,-3.88267 5.03823,-6.93335 9.01335,-9.15202 3.97512,-2.31112 8.50491,-3.46668 13.58937,-3.46668 6.0089,0 11.23202,1.43289 15.66937,4.29868 4.52979,2.86579 7.99646,6.93335 10.40003,12.2027 2.49601,5.1769 3.74401,11.37069 3.74401,18.58138 0,7.21068 -1.248,13.45069 -3.74401,18.72004 -2.40357,5.26935 -5.87024,9.33691 -10.40003,12.2027 -4.43735,2.77334 -9.66047,4.16001 -15.66937,4.16001 -4.99201,0 -9.47558,-1.06311 -13.4507,-3.18934 -3.88268,-2.21867 -6.84091,-5.22313 -8.87469,-9.01336 v 29.81341 c 0,4.71468 -2.35734,7.07202 -7.07202,7.07202 z m 25.93073,-35.49876 c 5.82401,0 10.44625,-2.08 13.8667,-6.24001 3.5129,-4.16001 5.26935,-10.16892 5.26935,-18.02671 0,-7.8578 -1.75645,-13.82048 -5.26935,-17.88805 -3.42045,-4.16001 -8.04269,-6.24001 -13.8667,-6.24001 -5.82401,0 -10.49247,2.08 -14.00536,6.24001 -3.42045,4.06757 -5.13068,10.03025 -5.13068,17.88805 0,7.85779 1.71023,13.8667 5.13068,18.02671 3.51289,4.16001 8.18135,6.24001 14.00536,6.24001 z m 67.78667,35.49876 c -2.58845,0 -4.39112,-0.97067 -5.40801,-2.91201 -0.92445,-1.84889 -0.832,-4.02134 0.27733,-6.51735 l 8.18135,-18.30405 -24.68272,-57.26947 c -1.10934,-2.49601 -1.15556,-4.71468 -0.13867,-6.65602 1.10933,-1.94133 3.23556,-2.912 6.37868,-2.912 1.66401,0 3.00445,0.416 4.02134,1.248 1.10934,0.832 2.08001,2.26489 2.91201,4.29868 l 18.99738,46.86945 19.27472,-46.86945 c 0.832,-2.12623 1.80267,-3.55912 2.912,-4.29868 1.10934,-0.832 2.63468,-1.248 4.57601,-1.248 2.49601,0 4.20623,0.97067 5.13068,2.912 0.92445,1.94134 0.87823,4.11379 -0.13866,6.51735 l -34.66676,79.73353 c -0.92445,2.12623 -1.98756,3.55912 -3.18934,4.29868 -1.10933,0.73956 -2.58845,1.10934 -4.43734,1.10934 z"
           id="path13-2-5-5"
           sodipodi:nodetypes="scccccccscsccccsccsccscsccscsscccsscssssssccsccsccsccssscscscscsscccccscccccsscscs" />
      </g>
      <g
         id="g3-6-6-6-8-9-4-5"
         transform="rotate(12.252226,-583.2313,1132.517)"
         inkscape:transform-center-x="-0.94996498"
         inkscape:transform-center-y="-0.066505451"
         style="fill:#000000;filter:url(#filter8-1)">
        <path
           class="cls-3"
           d="m 139.10715,192.58632 c -0.38365,1.15094 -3.35473,1.50792 -4.1035,1.19571 -0.38894,-0.1614 -1.36099,-1.6866 -2.09124,-1.6866 -0.45773,0 -0.58653,-0.3399 -0.96489,-0.28699 v -0.95779 c 0.41011,-0.0291 1.16152,-0.77787 1.28852,-0.79375 1.56369,-0.0688 2.63036,-0.87718 3.395,-0.53322 0.76465,0.34396 2.84123,1.94345 2.47611,3.06264 z"
           id="path14-8-4-2-1-4-1-7-4"
           style="fill:#000000;stroke-width:0.264583"
           sodipodi:nodetypes="ccscccsc" />
        <path
           id="line14-0-3-9-5-3-2-6-7"
           style="stroke:#010101;stroke-width:0.767292px;stroke-linecap:round;stroke-miterlimit:10"
           class="cls-4"
           d="m 138.4827,192.20264 1.5637,0.48419" />
        <path
           id="line15-2-3-1-5-1-7-5-6"
           style="stroke:#010101;stroke-width:0.767292px;stroke-linecap:round;stroke-miterlimit:10"
           class="cls-4"
           d="m 141.6339,191.77138 -1.5875,0.91545" />
        <path
           id="line16-1-3-2-4-4-0-6-5"
           style="stroke:#010101;stroke-width:0.767292px;stroke-linecap:round;stroke-miterlimit:10"
           class="cls-4"
           d="m 141.00154,194.26639 -0.91545,-1.58486" />
      </g>
      <g
         id="g2-93-9-6"
         style="fill:#000000;filter:url(#filter6-9)"
         transform="matrix(0.26458333,0,0,0.26458333,224.83196,204.25825)">
        <g
           id="g4-3-9"
           transform="translate(3.2110628e-6,0.00184378)">
          <path
             style="fill:#cccccc;stroke:#000000;stroke-width:1px;stroke-linecap:butt;stroke-linejoin:miter;stroke-opacity:1"
             d="m 160.71827,598.59616 h 19.99999 l -0.0968,10.04404 -23.82517,29.46889 -4.09717,54.60356 h 35.92191 l -4.09674,-54.60356 -23.90325,-29.46889 z"
             id="path1-7-3" />
          <path
             style="fill:#000000;stroke:#808080;stroke-width:5.85827;stroke-linecap:round;stroke-linejoin:miter;stroke-dasharray:none;stroke-opacity:1"
             d="m 170.86206,632.78194 0.0972,-32.15343"
             id="path2-0-2-6-2-5-2-6-6-4-7"
             sodipodi:nodetypes="cc" />
          <path
             style="fill:#000000;stroke:#808080;stroke-width:5.85827;stroke-linecap:round;stroke-linejoin:miter;stroke-dasharray:none;stroke-opacity:1"
             d="m 160.86209,693.24377 10.09717,-54.60356"
             id="path2-0-2-7-5-0-7-5-4"
             sodipodi:nodetypes="cc" />
          <path
             style="fill:#000000;stroke:#808080;stroke-width:5.85827;stroke-linecap:round;stroke-linejoin:miter;stroke-dasharray:none;stroke-opacity:1"
             d="m 180.86209,693.24377 -10.0972,-54.60356"
             id="path2-0-2-7-2-6-6-92-2-5"
             sodipodi:nodetypes="cc" />
          <path
             id="path1-4-2-7-5-2"
             style="stroke:#000000;stroke-width:3.15708;stroke-linecap:round"
             d="m 174.80255,638.6402 a 4.0907502,4.0907493 0 0 1 -4.09075,4.09075 4.0907502,4.0907493 0 0 1 -4.09076,-4.09075 4.0907502,4.0907493 0 0 1 4.09076,-4.09075 4.0907502,4.0907493 0 0 1 4.09075,4.09075 z" />
          <path
             id="path2-0-2-7-2-3-9-4-5-6-6-9-4-5"
             style="fill:#000000;stroke:#000000;stroke-width:5.85827;stroke-linecap:round;stroke-linejoin:miter;stroke-dasharray:none;stroke-opacity:1"
             d="m 180.95929,599.12728 h -20 m -0.0972,10.04404 0.0972,-10.04404 m 19.9028,10.04404 0.0972,-10.04404 m 7.9028,94.11649 h -35.92092 m -0.001,0 4.09717,-54.60356 m 31.82518,54.60356 -4.09717,-54.60356 m 0,0 -23.90283,-29.46889 m -3.90283,29.46889 23.90283,-29.46889"
             sodipodi:nodetypes="cccccccccccccccc" />
        </g>
      </g>
    </g>
  </g>
</svg>
