<?xml version="1.0" encoding="UTF-8" standalone="no"?>
<svg
   viewBox="0 0 3914.17 1689.6031"
   version="1.1"
   id="svg11"
   sodipodi:docname="lumispy-banner-dark.svg"
   width="3914.1699"
   height="1689.603"
   inkscape:version="1.3.2 (091e20ef0f, 2023-11-25, custom)"
   xmlns:inkscape="http://www.inkscape.org/namespaces/inkscape"
   xmlns:sodipodi="http://sodipodi.sourceforge.net/DTD/sodipodi-0.dtd"
   xmlns="http://www.w3.org/2000/svg"
   xmlns:svg="http://www.w3.org/2000/svg">
  <defs
     id="defs11" />
  <sodipodi:namedview
     id="namedview11"
     pagecolor="#ffffff"
     bordercolor="#666666"
     borderopacity="1.0"
     inkscape:showpageshadow="2"
     inkscape:pageopacity="0.0"
     inkscape:pagecheckerboard="0"
     inkscape:deskcolor="#d1d1d1"
     inkscape:zoom="0.24171264"
     inkscape:cx="1956.8691"
     inkscape:cy="846.04596"
     inkscape:window-width="1920"
     inkscape:window-height="1149"
     inkscape:window-x="0"
     inkscape:window-y="27"
     inkscape:window-maximized="1"
     inkscape:current-layer="Layer_1-2" />
  <g
     id="Layer_2"
     data-name="Layer 2"
     transform="translate(-368.01,-238.03702)">
    <g
       id="Layer_1-2"
       data-name="Layer 1">
      <path
         d="m 2770.94,1744.44 q -66.21,-20.16 -104.77,-53.49 l 39.45,-88.54 q 37.7,29.82 92.49,48.66 a 336.19,336.19 0 0 0 110,18.84 q 68.37,0 102.13,-21.91 33.76,-21.91 33.75,-57.86 0,-26.3 -18.84,-43.4 -18.84,-17.1 -47.75,-26.74 -28.93,-9.63 -78.91,-21.92 -70.14,-16.63 -113.52,-33.31 a 186.61,186.61 0 0 1 -74.53,-52.16 q -31.12,-35.5 -31.11,-96 0,-50.83 27.61,-92.49 27.61,-41.66 83.28,-66.19 55.67,-24.53 136.33,-24.54 a 441,441 0 0 1 110.46,14 c 36.23,9.36 2.92,101.12 -26.3,92.93 -29.22,-8.19 -57.58,-12.27 -85,-12.27 q -67.52,0 -100.38,22.79 -32.86,22.79 -32.87,60.49 0,26.3 18.84,43 18.84,16.7 47.78,26.3 28.93,9.66 78.91,21.92 68.37,15.78 112.21,32.87 a 192.32,192.32 0 0 1 75,52.17 q 31.11,35.07 31.13,94.68 0,50.85 -27.62,92 -27.62,41.15 -83.72,65.75 -56.12,24.54 -136.76,24.54 a 468.56,468.56 0 0 1 -137.29,-20.12 z"
         fill="#ffffff"
         id="path1" />
      <path
         d="m 1395.44,1287 v 468.14 h -104.33 v -59.61 q -26.29,31.56 -65.75,48.65 -39.46,17.09 -85,17.1 -93.81,0 -147.72,-52.16 -53.91,-52.16 -53.91,-154.74 V 1287 h 109.58 v 252.48 q 0,63.12 28.49,94.24 28.49,31.12 81.1,31.13 58.73,0 93.36,-36.39 34.63,-36.39 34.63,-104.76 V 1287 Z"
         fill="#ffffff"
         id="path2" />
      <path
         d="m 2270.37,1333 q 51.72,51.29 51.72,153.86 v 268.26 H 2212.51 V 1500.9 q 0,-61.35 -27.18,-92.48 -27.18,-31.13 -78,-31.13 -55.23,0 -88.54,36.38 -33.31,36.38 -33.31,103.89 v 237.58 H 1875.86 V 1500.9 q 0,-61.35 -27.18,-92.48 -27.18,-31.13 -78,-31.13 -56.12,0 -89,36 -32.88,36 -32.87,104.32 v 237.58 H 1539.22 V 1287 h 104.32 v 59.61 q 26.3,-31.56 65.75,-48.22 39.45,-16.66 87.67,-16.66 52.61,0 93.37,19.73 a 151.61,151.61 0 0 1 64.43,58.3 q 28.93,-36.83 74.52,-57.42 45.59,-20.59 100.82,-20.61 88.55,0 140.27,51.27 z"
         fill="#ffffff"
         id="path3" />
      <path
         d="m 2467.61,1191 q -20.16,-18.84 -20.16,-46.9 0,-28.06 20.16,-46.91 20.16,-18.84 50,-18.85 29.84,-0.01 50,18 20.14,18 20.16,45.15 0,28.92 -19.73,48.65 -19.73,19.73 -50.41,19.73 -29.85,-0.02 -50.02,-18.87 z m -5.26,96 h 109.59 v 468.14 h -109.59 z"
         fill="#ffffff"
         id="path4" />
      <path
         d="m 3138,1221.56 c -12.82,38.47 -111.72,66 -136.77,55.56 -13,-5.42 -45.21,-51.28 -72.65,-51.28 -15.3,0 -34.36,2.39 -47,4.19 v -93.94 c 13.67,-1 51.28,0 55.56,0 47.59,0 94.28,-37.1 119.66,-25.64 25.38,11.46 93.69,73.72 81.2,111.11 z"
         fill="#ffffff"
         id="path5" />
      <path
         d="m 3638.41,1311.54 q 53.93,29.82 84.6,84.16 30.67,54.34 30.69,125.37 0,71 -30.69,125.8 -30.69,54.8 -84.6,84.6 -53.91,29.82 -122.29,29.81 -94.68,0 -149.91,-63.12 v 227.06 H 3256.62 V 1287 h 104.32 v 61.36 a 169.59,169.59 0 0 1 67.07,-50 q 39.88,-16.64 88.11,-16.66 68.39,0.03 122.29,29.84 z m -35.06,315.6 q 39,-40.31 39,-106.07 0,-65.76 -39,-106.08 -39,-40.32 -99.5,-40.33 -39.46,0 -71,18 -31.54,18 -50,51.28 -18.41,33.33 -18.41,77.15 0,43.82 18.41,77.15 18.41,33.32 50,51.28 31.59,17.96 71,18 60.48,-0.05 99.5,-40.38 z"
         fill="#ffffff"
         id="path6" />
      <line
         x1="3099.54"
         y1="1208.74"
         x2="3159.3799"
         y2="1225.84"
         fill="none"
         stroke="#ffffff"
         stroke-linecap="round"
         stroke-miterlimit="10"
         stroke-width="25.64"
         id="line6" />
      <line
         x1="3213.6499"
         y1="1197.72"
         x2="3160.6599"
         y2="1228.3199"
         fill="none"
         stroke="#ffffff"
         stroke-linecap="round"
         stroke-miterlimit="10"
         stroke-width="25.64"
         id="line7" />
      <line
         x1="3192.54"
         y1="1281.1"
         x2="3161.9399"
         y2="1228.11"
         fill="none"
         stroke="#ffffff"
         stroke-linecap="round"
         stroke-miterlimit="10"
         stroke-width="25.64"
         id="line8" />
      <path
         d="m 674,1247.86 q -30.65,-76.29 -74.49,-107.4 -43.84,-31.11 -106.11,-31.12 a 217.92,217.92 0 0 0 -69.28,11.41 q -34.17,11.41 -56.11,31.54 l 43.85,80.65 a 119,119 0 0 1 37.26,-23.63 113.67,113.67 0 0 1 43.38,-8.81 q 28.92,0 47.78,14.92 18,14.3 33.25,47 c 0.47,1 0.9,2 1.37,3 l 7.91,18.42 57,123.6 148.19,346.27 h 105.17 z"
         fill="#ffffff"
         id="path8" />
      <path
         d="M 595.14,1497.31 492.5,1753.71 H 378.56 L 535.05,1362.5 c 18.6,42.56 41.5,92.24 60.09,134.81 z"
         fill="#ffffff"
         id="path9" />
      <path
         d="m 4062.94,1789.13 q -30.64,76.29 -74.49,107.4 -43.85,31.11 -106.08,31.11 a 217.69,217.69 0 0 1 -69.28,-11.41 q -34.17,-11.42 -56.11,-31.54 l 43.85,-80.65 a 119.05,119.05 0 0 0 37.26,23.64 113.84,113.84 0 0 0 43.38,8.8 q 28.92,0 47.79,-14.92 18,-14.3 33.25,-47 c 0.47,-1 0.89,-2 1.36,-3 l 7.91,-18.42 57,-123.6 148.17,-346.3 h 105.23 z"
         fill="#ffffff"
         id="path10" />
      <path
         d="m 3984.11,1539.68 -102.64,-256.4 H 3767.53 L 3924,1674.49 c 18.62,-42.57 41.52,-92.25 60.11,-134.81 z"
         fill="#ffffff"
         id="path11" />
      <path
         id="path833-6-75-1-8"
         d="m 3302.17,863.39 c -25.56,-22.31 -52.52,-53.91 -82.81,-46.7 -30.29,7.21 -40.62,48.78 -50.49,78.43 -9.93,29.83 -20.21,71.21 -50.5,78.42 -30.29,7.21 -59.38,-25.2 -82.8,-46.7 -24.28,-22.29 -52.51,-53.91 -82.8,-46.7 -30.29,7.21 -40.44,48.84 -50.49,78.42 -10.53,31 -20.21,71.22 -50.5,78.43 -30.29,7.21 -59,-25.63 -82.8,-46.7 -25.27,-22.37 -52.51,-53.91 -82.8,-46.7 -30.29,7.21 -50.5,78.42 -50.5,78.42 0,0 16,-74.34 45.28,-84.92 29.28,-10.58 57.78,18.42 83.79,38.35 24.5,18.77 54.46,48.93 83.78,38.35 29.32,-10.58 36.64,-52.39 45.28,-84.92 8.24,-31.07 16,-74.34 45.27,-84.93 29.27,-10.59 58.76,18.4 83.79,38.35 24.15,19.25 54.46,48.93 83.79,38.35 29.33,-10.58 37.16,-53.62 45.27,-84.92 8.07,-31.11 16,-74.34 45.28,-84.92 29.28,-10.58 57.5,18.51 83.79,38.35 44.75,45 45.92,95.78 21.16,74.24 z"
         fill="#ff0000" />
      <path
         id="path833-6-2-3-2-7"
         d="m 2941.77,546.84 c -19.87,19.75 -9,65.48 -2.91,93.12 6.15,27.8 17.36,64.74 -2.51,84.49 -19.87,19.75 -57.09,8.17 -84.94,2.4 -28.86,-6 -65.06,-17.34 -84.93,2.4 -19.87,19.74 -8.46,56.82 -2.52,84.5 6.23,29 17.36,64.74 -2.52,84.49 -19.88,19.75 -57,7.64 -84.93,2.4 -29.65,-5.57 -65.06,-17.35 -84.93,2.4 -19.87,19.75 -2.52,84.49 -2.52,84.49 0,0 -22,-65.18 -4.47,-87.1 17.53,-21.92 52.74,-12.68 81.84,-9.35 27.41,3.14 64.25,12.57 81.83,-9.35 17.58,-21.92 3.91,-57.8 -4.47,-87.1 -8,-28 -22.05,-65.18 -4.47,-87.1 17.58,-21.92 53.47,-13.15 81.83,-9.35 27.37,3.68 64.26,12.57 81.84,-9.34 17.58,-21.91 3.74,-59 -4.47,-87.1 -8.16,-27.93 -20.61,-58.89 -4.47,-87.1 87.64,-63.6 127.55,20.23 239.31,32.2 14.82,1.59 -12,44.68 -31.93,39.92 -116.54,-27.85 -123.74,-67.86 -159.66,-39.92 z"
         fill="#ff7f2a" />
      <path
         id="path833-6-7-5-7-9"
         d="m 2773.72,399.92 c -7.6,22.68 -40.83,28.46 -64.26,35.94 -25,8 -56.67,13.26 -64.26,35.94 -7.59,22.68 15.44,45.77 30.85,63.87 15.41,18.1 38.45,41.19 30.86,63.87 -7.59,22.68 -40.65,29 -64.26,35.94 -24.47,7.17 -56.67,13.26 -64.26,35.94 -7.59,22.68 15.56,45.68 30.86,63.87 16,19.06 38.44,41.19 30.85,63.87 -7.59,22.68 -40.78,28.61 -64.26,35.94 -24.92,7.78 -56.66,13.26 -64.26,35.94 -7.6,22.68 30.86,63.87 30.86,63.87 0,0 -42.22,-39.63 -37.24,-63 4.98,-23.37 35.57,-30.63 59.19,-39.86 22.26,-8.69 54.2,-16.49 59.19,-39.86 4.99,-23.37 -19.43,-44.58 -37.23,-63 -17,-17.6 -42.23,-39.63 -37.24,-63 4.99,-23.37 35.94,-31.29 59.19,-39.87 22.42,-8.27 54.2,-16.48 59.19,-39.86 4.99,-23.38 -20,-45.39 -37.24,-63 -17.24,-17.61 -42.22,-39.62 -37.23,-63 4.99,-23.38 35.5,-30.42 59.18,-39.86 22.2,-8.85 54.2,-16.49 59.19,-39.86 14.84,-65.41 -97.92,-97.92 -92.94,-121.29 7.99,-23.95 175.63,15.97 155.27,140.47 z"
         fill="#ffcc00" />
      <path
         id="path833-6-0-6-0-2"
         d="m 2363,239.49 c 15.27,14.1 -55.89,87.82 -42.74,128.84 4.72,20.24 52.18,33.84 52.18,33.84 0,0 47.45,13.6 52.17,33.84 4.72,20.24 -17.37,39.28 -31.39,55.24 -15,17 -36.11,35 -31.39,55.24 4.72,20.24 32.42,27.21 52.17,33.85 19.75,6.64 47.46,13.59 52.18,33.84 4.72,20.25 -17,39.63 -31.39,55.24 -14.94,16.18 -36.11,35 -31.39,55.24 4.72,20.24 32.47,27.09 52.17,33.84 20.64,7.08 47.46,13.6 52.18,33.84 4.72,20.24 -17.27,39.38 -31.39,55.25 -15,16.84 -36.12,35 -31.39,55.24 4.73,20.24 52.17,33.84 52.17,33.84 0,0 -49.55,-10.76 -56.52,-30.36 -6.97,-19.6 12.45,-38.57 25.82,-55.92 12.59,-16.33 32.8,-36.3 25.82,-55.91 -6.98,-19.61 -34.85,-24.55 -56.52,-30.36 -20.7,-5.56 -49.55,-10.76 -56.53,-30.37 -6.98,-19.61 12.44,-39.22 25.82,-55.91 12.91,-16.1 32.8,-36.31 25.83,-55.91 -6.97,-19.6 -35.67,-24.9 -56.53,-30.37 -20.86,-5.47 -49.55,-10.76 -56.52,-30.36 -6.97,-19.6 12.51,-38.38 25.82,-55.92 12.47,-16.42 32.8,-36.3 25.82,-55.91 -6.98,-19.61 -56.53,-30.37 -56.53,-30.37 0,0 -45.72,-11.87 -57.7,-43.8 C 2267.2,275.42 2351.66,229 2363,239.49 Z"
         fill="#2ca02c" />
      <path
         id="path833-6-9-2-9-0"
         d="m 1987.19,479.5 c -4.26,18.12 -12,40.76 -0.24,53.72 11.76,12.96 34.84,6.51 52,3.32 18,-3.34 40.25,-9.64 52,3.32 11.75,12.96 3.56,36.17 -0.24,53.71 -4,18.63 -12,40.76 -0.24,53.72 11.76,12.96 52,3.32 52,3.32 0,0 40.25,-9.65 52,3.32 11.75,12.97 3.45,36.14 -0.23,53.71 -3.93,18.75 -12,40.76 -0.24,53.72 11.76,12.96 34.86,6.61 52,3.31 17.14,-3.3 40.25,-9.64 52,3.32 11.75,12.96 3.88,36.24 -0.24,53.72 -4.25,18.12 -12,40.75 -0.23,53.71 11.77,12.96 34.84,6.51 52,3.32 18,-3.33 40.25,-9.64 52,3.32 11.75,12.96 3.56,36.17 -0.24,53.72 -4,18.62 -12,40.75 -0.23,53.71 11.77,12.96 52,3.32 52,3.32 0,0 -40.61,12.6 -53.76,1.05 -13.15,-11.55 -6.75,-33.59 -4.11,-51.91 2.48,-17.25 9.05,-40.34 -4.1,-51.9 -13.15,-11.56 -35.54,-3.65 -53.76,1.05 -17.41,4.49 -40.62,12.6 -53.77,1 -13.15,-11.6 -7,-34.06 -4.1,-51.91 2.81,-17.21 9.05,-40.34 -4.1,-51.9 -13.15,-11.56 -36.29,-3.57 -53.77,1 -17.48,4.57 -40.61,12.6 -53.76,1 -13.15,-11.6 -6.63,-33.47 -4.1,-51.9 2.36,-17.27 9,-40.35 -4.11,-51.9 -13.11,-11.55 -53.76,1 -53.76,1 0,0 -40.61,12.61 -53.76,1.05 -13.15,-11.56 -6.75,-33.58 -4.11,-51.9 2.48,-17.25 9,-40.35 -4.1,-51.9 -13.1,-11.55 -35.54,-3.65 -53.76,1.05 -17.41,4.49 -40.62,12.6 -53.77,1 -13.15,-11.6 -7,-34 -4.1,-51.9 7.9,-31.78 59.18,-77.22 54.83,-55.6 z"
         fill="#2a7fff" />
      <path
         id="path833-6-3-9-3-2"
         d="m 1742.61,838.43 c 18.34,-16.24 26.81,-26.32 42,-21.95 15.19,4.37 19.79,25.89 24.69,41.18 5.08,15.86 9.55,36.82 24.7,41.19 15.15,4.37 30.09,-11.43 42,-22 12.43,-11 26.82,-26.31 42,-21.94 15.18,4.37 19.52,26 24.7,41.18 5.49,16.14 9.55,36.81 24.7,41.19 15.15,4.38 42,-22 42,-22 0,0 26.81,-26.32 42,-21.94 15.19,4.38 19.42,26 24.69,41.18 5.64,16.19 9.55,36.81 24.7,41.18 15.15,4.37 30.16,-11.35 42,-21.94 11.84,-10.59 26.82,-26.32 42,-22 15.18,4.32 19.8,25.89 24.7,41.19 5.08,15.86 9.55,36.81 24.7,41.18 15.15,4.37 30.09,-11.42 42,-21.94 12.43,-11 26.81,-26.32 42,-22 15.19,4.32 19.52,26 24.7,41.19 5.49,16.14 9.55,36.81 24.69,41.18 15.14,4.37 42,-21.94 42,-21.94 0,0 -25.72,28.75 -41.29,26.1 -15.57,-2.65 -20.8,-22.5 -27.24,-37.75 -6.06,-14.37 -11.66,-35.11 -27.23,-37.75 -15.57,-2.64 -29.31,13.93 -41.3,26.1 -11.45,11.62 -25.72,28.75 -41.3,26.11 -15.58,-2.64 -21.23,-22.74 -27.23,-37.76 -5.79,-14.49 -11.66,-35.1 -27.23,-37.75 -15.57,-2.65 -29.85,14.35 -41.3,26.1 -11.45,11.75 -25.73,28.76 -41.3,26.11 -15.57,-2.65 -20.65,-22.47 -27.23,-37.75 -6.16,-14.32 -11.66,-35.11 -27.23,-37.75 -15.57,-2.64 -41.3,26.1 -41.3,26.1 0,0 -25.73,28.75 -41.3,26.11 -15.57,-2.64 -20.8,-22.51 -27.23,-37.76 -6.06,-14.36 -11.66,-35.1 -27.23,-37.75 -15.57,-2.65 -29.31,13.94 -41.3,26.1 -11.45,11.62 -25.73,28.76 -41.3,26.11 -15.57,-2.65 -21.63,-22.54 -27.63,-37.54 -5.79,-14.49 -11.66,-35.11 -27.24,-37.75 -15.58,-2.64 -26.72,14.32 -41.29,26.1 -14.57,11.78 0.38,-59.68 18.73,-75.91 z"
         fill="#7f2aff" />
    </g>
  </g>
</svg>
