<?xml version="1.0" encoding="UTF-8" standalone="no"?>
<svg
   id="Layer_1"
   data-name="Layer 1"
   viewBox="0 0 980.60999 423.29224"
   version="1.1"
   sodipodi:docname="lumispy-banner-light.svg"
   width="980.60999"
   height="423.29224"
   inkscape:version="1.3.2 (091e20ef0f, 2023-11-25, custom)"
   xmlns:inkscape="http://www.inkscape.org/namespaces/inkscape"
   xmlns:sodipodi="http://sodipodi.sourceforge.net/DTD/sodipodi-0.dtd"
   xmlns="http://www.w3.org/2000/svg"
   xmlns:svg="http://www.w3.org/2000/svg">
  <sodipodi:namedview
     id="namedview11"
     pagecolor="#ffffff"
     bordercolor="#666666"
     borderopacity="1.0"
     inkscape:showpageshadow="2"
     inkscape:pageopacity="0.0"
     inkscape:pagecheckerboard="0"
     inkscape:deskcolor="#d1d1d1"
     inkscape:zoom="0.96480687"
     inkscape:cx="490.25356"
     inkscape:cy="211.95952"
     inkscape:window-width="1920"
     inkscape:window-height="1149"
     inkscape:window-x="0"
     inkscape:window-y="27"
     inkscape:window-maximized="1"
     inkscape:current-layer="Layer_1" />
  <defs
     id="defs1">
    <style
       id="style1">.cls-1{fill:#fff;stroke:#000;stroke-linecap:round;stroke-miterlimit:10;stroke-width:6.42px;}.cls-2{fill:red;}.cls-3{fill:#ff7f2a;}.cls-4{fill:#fc0;}.cls-5{fill:#2ca02c;}.cls-6{fill:#2a7fff;}.cls-7{fill:#7f2aff;}</style>
  </defs>
  <path
     d="m 601.95,377.36221 q -16.59,-5 -26.24,-13.4 l 9.88,-22.18 a 77.8,77.8 0 0 0 23.16,12.22 84.19,84.19 0 0 0 27.56,4.72 q 17.13,0 25.59,-5.49 8.46,-5.49 8.46,-14.49 a 14.07,14.07 0 0 0 -4.72,-10.88 33.24,33.24 0 0 0 -12,-6.69 q -7.26,-2.42 -19.77,-5.5 a 229.75,229.75 0 0 1 -28.4,-8.31 46.73,46.73 0 0 1 -18.67,-13.07 q -7.8,-8.89 -7.8,-24 a 41.06,41.06 0 0 1 6.92,-23.17 q 6.92,-10.43 20.86,-16.58 13.94,-6.15 34.16,-6.18 a 110.42,110.42 0 0 1 27.67,3.51 c 9.08,2.34 0.73,25.33 -6.59,23.28 a 78.83,78.83 0 0 0 -21.3,-3.07 q -16.92,0 -25.15,5.71 -8.23,5.71 -8.24,15.15 a 13.69,13.69 0 0 0 4.72,10.76 34,34 0 0 0 12,6.59 q 7.26,2.43 19.77,5.49 a 209.29,209.29 0 0 1 28.11,8.24 48.12,48.12 0 0 1 18.78,13.07 q 7.8,8.79 7.8,23.72 a 40.52,40.52 0 0 1 -6.92,23.06 q -6.91,10.34 -21,16.47 -14.09,6.13 -34.27,6.15 a 117.18,117.18 0 0 1 -34.37,-5.13 z"
     id="path1" />
  <path
     d="m 257.35,262.79221 v 117.28 h -26.14 v -14.93 a 43.72,43.72 0 0 1 -16.46,12.22 53.09,53.09 0 0 1 -21.31,4.28 q -23.49,0 -37,-13.07 -13.51,-13.07 -13.51,-38.76 v -67 h 27.45 v 63.26 q 0,15.81 7.14,23.61 7.14,7.8 20.32,7.79 14.71,0 23.39,-9.11 8.68,-9.11 8.67,-26.25 v -59.3 z"
     id="path2" />
  <path
     d="m 476.54,274.36221 q 13,12.85 13,38.55 v 67.2 h -27.49 v -63.75 q 0,-15.37 -6.81,-23.17 -6.81,-7.8 -19.55,-7.8 -13.83,0 -22.18,9.12 -8.35,9.12 -8.35,26 v 59.52 h -27.41 v -63.67 q 0,-15.37 -6.81,-23.17 -6.81,-7.8 -19.55,-7.8 -14.06,0 -22.29,9 -8.23,9 -8.24,26.13 v 59.52 h -27.49 v -117.25 h 26.14 v 14.94 a 42.54,42.54 0 0 1 16.47,-12.08 56,56 0 0 1 22,-4.18 53.11,53.11 0 0 1 23.39,4.94 38.08,38.08 0 0 1 16.15,14.61 49,49 0 0 1 18.66,-14.39 60.69,60.69 0 0 1 25.26,-5.16 q 22.15,0 35.1,12.89 z"
     id="path3" />
  <path
     d="m 525.96,238.74221 a 16.19,16.19 0 0 1 0,-23.5 17.63,17.63 0 0 1 12.52,-4.72 18.14,18.14 0 0 1 12.52,4.5 14.5,14.5 0 0 1 5,11.31 16.58,16.58 0 0 1 -4.94,12.19 17.1,17.1 0 0 1 -12.63,4.94 17.63,17.63 0 0 1 -12.47,-4.72 z m -1.32,24.05 h 27.46 v 117.28 h -27.46 z"
     id="path4" />
  <path
     d="m 693.91,246.36221 c -3.21,9.63 -28,16.53 -34.26,13.92 -3.27,-1.36 -11.33,-12.85 -18.2,-12.85 a 91.78,91.78 0 0 0 -11.78,1.05 v -23.5 c 3.43,-0.25 12.85,0 13.92,0 11.92,0 23.62,-9.29 30,-6.42 6.38,2.87 23.45,18.47 20.32,27.8 z"
     id="path5" />
  <path
     d="m 819.28,268.94221 a 53.89,53.89 0 0 1 21.19,21.08 q 7.69,13.63 7.69,31.41 0,17.78 -7.69,31.52 a 53.59,53.59 0 0 1 -21.19,21.19 q -13.51,7.47 -30.64,7.47 -23.71,0 -37.56,-15.81 v 56.88 h -27.45 v -159.89 h 26.12 v 15.37 a 42.35,42.35 0 0 1 16.8,-12.51 56.76,56.76 0 0 1 22.07,-4.18 q 17.13,0 30.66,7.47 z m -8.79,79.07 q 9.78,-10.11 9.78,-26.58 0,-16.47 -9.78,-26.57 -9.76,-10.11 -24.92,-10.11 a 35.32,35.32 0 0 0 -17.82,4.51 32.44,32.44 0 0 0 -12.52,12.84 42.75,42.75 0 0 0 0,38.66 32.41,32.41 0 0 0 12.52,12.85 35.32,35.32 0 0 0 17.79,4.5 q 15.21,0 24.95,-10.1 z"
     id="path6" />
  <line
     class="cls-1"
     x1="684.28003"
     y1="243.1922"
     x2="699.27002"
     y2="247.4722"
     id="line6" />
  <line
     class="cls-1"
     x1="712.85999"
     y1="240.42221"
     x2="699.59003"
     y2="248.09222"
     id="line7" />
  <line
     class="cls-1"
     x1="707.57001"
     y1="261.31223"
     x2="699.90997"
     y2="248.04221"
     id="line8" />
  <path
     d="m 76.6,252.98221 q -7.68,-19.11 -18.66,-26.9 -10.98,-7.79 -26.58,-7.8 a 54.73,54.73 0 0 0 -17.36,2.86 38.59,38.59 0 0 0 -14,7.9 l 11,20.21 a 29.64,29.64 0 0 1 9.34,-5.92 28.43,28.43 0 0 1 10.87,-2.21 18.71,18.71 0 0 1 12,3.74 q 4.51,3.58 8.33,11.77 c 0.12,0.24 0.22,0.49 0.34,0.74 l 2,4.62 14.27,31 37.13,86.77 h 26.36 z"
     id="path8" />
  <path
     d="m 56.85,315.48221 -25.71,64.24 H 2.59 l 39.21,-98 c 4.65,10.64 10.39,23.1 15.05,33.76 z"
     id="path9" />
  <path
     d="m 925.64,388.59221 q -7.68,19.11 -18.67,26.91 -10.99,7.8 -26.57,7.79 a 54.45,54.45 0 0 1 -17.36,-2.86 38.57,38.57 0 0 1 -14.06,-7.9 l 11,-20.2 a 29.88,29.88 0 0 0 9.34,5.92 28.55,28.55 0 0 0 10.86,2.2 18.75,18.75 0 0 0 12,-3.73 c 3,-2.39 5.8,-6.32 8.33,-11.77 l 0.35,-0.75 2,-4.62 14.27,-31 37.12,-86.76 h 26.36 z"
     id="path10" />
  <path
     d="m 905.89,326.09221 -25.72,-64.23 h -28.54 l 39.2,98 c 4.66,-10.66 10.4,-23.1 15.06,-33.77 z"
     id="path11" />
  <path
     id="path833-6-75-1-8"
     class="cls-2"
     d="m 735.04,156.66221 c -6.4,-5.58 -13.16,-13.5 -20.74,-11.69 -7.58,1.81 -10.18,12.21 -12.65,19.64 -2.47,7.43 -5.07,17.84 -12.66,19.65 -7.59,1.81 -14.87,-6.31 -20.74,-11.7 -6.08,-5.58 -13.16,-13.5 -20.74,-11.7 -7.58,1.8 -10.14,12.24 -12.65,19.65 -2.64,7.76 -5.07,17.84 -12.65,19.65 -7.58,1.81 -14.79,-6.43 -20.75,-11.7 -6.33,-5.61 -13.15,-13.51 -20.74,-11.7 -7.59,1.81 -12.65,19.6 -12.65,19.6 0,0 4,-18.62 11.34,-21.27 7.34,-2.65 14.47,4.61 21,9.61 6.14,4.7 13.64,12.25 21,9.6 7.36,-2.65 9.18,-13.12 11.34,-21.27 2.07,-7.78 4,-18.63 11.35,-21.28 7.35,-2.65 14.72,4.61 21,9.61 6,4.82 13.64,12.26 21,9.61 7.36,-2.65 9.31,-13.44 11.34,-21.28 2.03,-7.84 4,-18.62 11.35,-21.27 7.35,-2.65 14.4,4.63 21,9.6 11.21,11.28 11.5,24 5.3,18.61 z" />
  <path
     id="path833-6-2-3-2-7"
     class="cls-3"
     d="m 644.75,77.36221 c -5,4.95 -2.26,16.4 -0.73,23.33 1.53,6.93 4.35,16.22 -0.63,21.17 -4.98,4.95 -14.3,2 -21.28,0.6 -7.23,-1.5 -16.3,-4.35 -21.27,0.6 -4.97,4.95 -2.12,14.23 -0.64,21.17 1.56,7.26 4.35,16.22 -0.63,21.16 -4.98,4.94 -14.28,1.92 -21.27,0.61 -7.43,-1.4 -16.3,-4.35 -21.28,0.6 -4.98,4.95 -0.63,21.17 -0.63,21.17 0,0 -5.53,-16.34 -1.12,-21.83 4.41,-5.49 13.21,-3.17 20.5,-2.34 6.87,0.79 16.1,3.15 20.5,-2.34 4.4,-5.49 1,-14.48 -1.12,-21.82 -2,-7 -5.52,-16.33 -1.12,-21.82 4.4,-5.49 13.4,-3.3 20.5,-2.34 6.86,0.92 16.1,3.14 20.51,-2.35 4.41,-5.49 0.93,-14.78 -1.13,-21.82 -2.06,-7.04 -5.16,-14.75 -1.16,-21.82 22,-15.93 32,5.07 60,8.07 3.71,0.4 -3,11.19 -8,10 -29.2,-7 -31,-17 -40,-10 z" />
  <path
     id="path833-6-7-5-7-9"
     class="cls-4"
     d="m 602.65,40.55221 c -1.9,5.68 -10.23,7.13 -16.1,9 -6.27,2 -14.2,3.32 -16.1,9 -1.9,5.68 3.87,11.47 7.73,16 3.86,4.53 9.63,10.32 7.73,16 -1.9,5.68 -10.18,7.28 -16.1,9 -6.13,1.79 -14.2,3.32 -16.1,9 -1.9,5.68 3.9,11.44 7.73,16 4,4.78 9.63,10.32 7.73,16 -1.9,5.68 -10.21,7.17 -16.1,9 -6.24,1.95 -14.19,3.32 -16.09,9 -1.9,5.68 7.73,16 7.73,16 0,0 -10.58,-9.92 -9.33,-15.78 1.25,-5.86 8.91,-7.68 14.83,-10 5.57,-2.17 13.57,-4.13 14.82,-10 1.25,-5.87 -4.86,-11.17 -9.32,-15.79 -4.26,-4.41 -10.58,-9.92 -9.33,-15.78 1.25,-5.86 9,-7.84 14.83,-10 5.61,-2.07 13.57,-4.13 14.82,-10 1.25,-5.87 -5,-11.38 -9.32,-15.79 -4.32,-4.41 -10.58,-9.92 -9.33,-15.78 1.25,-5.86 8.89,-7.62 14.83,-10 5.55,-2.21 13.57,-4.13 14.82,-10 3.72,-16.27 -24.53,-24.41 -23.28,-30.2699997 2,-6.00000002 44,4 38.9,35.1899997 z" />
  <path
     id="path833-6-0-6-0-2"
     class="cls-5"
     d="m 499.75,0.36221028 c 3.83,3.53000002 -14,21.99999972 -10.71,32.27999972 1.19,5.07 13.08,8.47 13.08,8.47 0,0 11.88,3.41 13.07,8.48 1.19,5.07 -4.36,9.84 -7.87,13.84 -3.75,4.27 -9.05,8.77 -7.86,13.84 1.19,5.07 8.12,6.82 13.07,8.48 4.95,1.66 11.89,3.41 13.07,8.48 1.18,5.07 -4.25,9.93 -7.86,13.84 -3.61,3.91 -9,8.77 -7.87,13.84 1.13,5.07 8.14,6.78 13.07,8.48 5.17,1.77 11.89,3.4 13.07,8.48 1.18,5.08 -4.32,9.86 -7.86,13.84 -3.76,4.22 -9,8.76 -7.86,13.84 1.14,5.08 13.07,8.47 13.07,8.47 0,0 -12.42,-2.69 -14.16,-7.6 -1.74,-4.91 3.12,-9.67 6.47,-14 3.15,-4.09 8.21,-9.1 6.46,-14 -1.75,-4.9 -8.73,-6.15 -14.16,-7.61 -5.18,-1.39 -12.41,-2.69 -14.16,-7.6 -1.75,-4.91 3.12,-9.83 6.47,-14 3.35,-4.17 8.22,-9.1 6.47,-14 -1.75,-4.9 -8.93,-6.24 -14.16,-7.61 -5.23,-1.37 -12.41,-2.69 -14.16,-7.6 -1.75,-4.91 3.13,-9.62 6.47,-14 3.12,-4.12 8.21,-9.1 6.47,-14 -1.74,-4.9 -14.16,-7.64 -14.16,-7.64 0,0 -11.46,-3 -14.46,-11 3,-24.9999997 24.16,-36.6199997 27,-33.99999972 z" />
  <path
     id="path833-6-9-2-9-0"
     class="cls-6"
     d="m 405.6,60.49221 c -1.07,4.54 -3,10.21 -0.06,13.46 2.94,3.25 8.73,1.63 13,0.83 4.51,-0.84 10.08,-2.42 13,0.83 2.92,3.25 0.89,9.06 -0.06,13.46 -1,4.66 -3,10.21 -0.06,13.45 2.94,3.24 13,0.84 13,0.84 0,0 10.09,-2.42 13,0.83 2.91,3.25 0.87,9 -0.06,13.45 -1,4.7 -3,10.22 -0.06,13.46 2.94,3.24 8.74,1.66 13,0.83 4.26,-0.83 10.09,-2.41 13,0.83 2.91,3.24 1,9.08 -0.06,13.46 -1.07,4.54 -3,10.21 -0.06,13.46 2.94,3.25 8.72,1.63 13,0.83 4.5,-0.83 10.08,-2.41 13,0.83 2.92,3.24 0.89,9.06 -0.06,13.46 -1,4.67 -3,10.21 -0.06,13.46 2.94,3.25 13,0.83 13,0.83 0,0 -10.18,3.16 -13.47,0.26 -3.29,-2.9 -1.69,-8.41 -1,-13 0.62,-4.33 2.27,-10.11 -1,-13 -3.27,-2.89 -8.9,-0.91 -13.47,0.27 -4.36,1.12 -10.17,3.15 -13.47,0.26 -3.3,-2.89 -1.75,-8.53 -1,-13 0.7,-4.32 2.26,-10.11 -1,-13 -3.26,-2.89 -9.09,-0.89 -13.47,0.26 -4.38,1.15 -10.18,3.16 -13.47,0.27 -3.29,-2.89 -1.66,-8.39 -1,-13 0.59,-4.32 2.27,-10.1 -1,-13 -3.27,-2.9 -13.47,0.26 -13.47,0.26 0,0 -10.17,3.16 -13.46,0.27 -3.29,-2.89 -1.69,-8.42 -1,-13 0.62,-4.32 2.26,-10.11 -1,-13 -3.26,-2.89 -8.9,-0.91 -13.47,0.26 -4.36,1.13 -10.17,3.16 -13.47,0.26 -3.3,-2.9 -1.76,-8.53 -1,-13 2,-8 14.83,-19.35 13.74,-13.93 z" />
  <path
     id="path833-6-3-9-3-2"
     class="cls-7"
     d="m 344.32,150.41221 c 4.6,-4.07 6.72,-6.59 10.52,-5.5 3.8,1.09 5,6.49 6.18,10.32 1.18,3.83 2.4,9.22 6.19,10.32 3.79,1.1 7.54,-2.86 10.51,-5.5 2.97,-2.64 6.72,-6.59 10.52,-5.5 3.8,1.09 4.89,6.51 6.18,10.32 1.38,4 2.4,9.22 6.19,10.32 3.79,1.1 10.51,-5.5 10.51,-5.5 0,0 6.72,-6.59 10.52,-5.5 3.8,1.09 4.86,6.52 6.18,10.32 1.41,4.06 2.4,9.22 6.19,10.32 3.79,1.1 7.55,-2.85 10.51,-5.5 2.96,-2.65 6.72,-6.59 10.51,-5.5 3.79,1.09 5,6.49 6.19,10.32 1.19,3.83 2.39,9.22 6.19,10.32 3.8,1.1 7.54,-2.86 10.51,-5.5 3.12,-2.76 6.72,-6.59 10.51,-5.5 3.79,1.09 4.89,6.51 6.19,10.32 1.38,4 2.39,9.22 6.19,10.32 3.8,1.1 10.51,-5.5 10.51,-5.5 0,0 -6.44,7.2 -10.34,6.54 -3.9,-0.66 -5.22,-5.64 -6.83,-9.46 -1.52,-3.6 -2.92,-8.79 -6.82,-9.46 -3.9,-0.67 -7.34,3.5 -10.35,6.54 -3.01,3.04 -6.44,7.21 -10.34,6.54 -3.9,-0.67 -5.32,-5.69 -6.83,-9.45 -1.51,-3.76 -2.92,-8.8 -6.82,-9.46 -3.9,-0.66 -7.48,3.59 -10.34,6.54 -2.86,2.95 -6.45,7.2 -10.35,6.54 -3.9,-0.66 -5.18,-5.63 -6.82,-9.46 -1.55,-3.59 -2.92,-8.8 -6.83,-9.46 -3.91,-0.66 -10.34,6.54 -10.34,6.54 0,0 -6.45,7.2 -10.35,6.54 -3.9,-0.66 -5.21,-5.64 -6.82,-9.46 -1.52,-3.6 -2.92,-8.79 -6.82,-9.46 -3.9,-0.67 -7.35,3.5 -10.35,6.55 -3,3.05 -6.45,7.2 -10.35,6.54 -3.9,-0.66 -5.32,-5.7 -6.82,-9.46 -1.5,-3.76 -2.92,-8.8 -6.82,-9.46 -3.9,-0.66 -6.7,3.59 -10.35,6.54 -3.65,2.95 0.1,-14.95 4.69,-19 z" />
</svg>
