<?xml version="1.0" encoding="UTF-8" standalone="no"?>
<!-- Created with Inkscape (http://www.inkscape.org/) -->

<svg
   width="137.6581mm"
   height="35.454166mm"
   viewBox="0 0 137.6581 35.454167"
   version="1.1"
   id="svg1"
   inkscape:version="1.3.2 (091e20ef0f, 2023-11-25, custom)"
   sodipodi:docname="particlespy-banner-light.svg"
   xmlns:inkscape="http://www.inkscape.org/namespaces/inkscape"
   xmlns:sodipodi="http://sodipodi.sourceforge.net/DTD/sodipodi-0.dtd"
   xmlns="http://www.w3.org/2000/svg"
   xmlns:svg="http://www.w3.org/2000/svg">
  <sodipodi:namedview
     id="namedview1"
     pagecolor="#ffffff"
     bordercolor="#666666"
     borderopacity="1.0"
     inkscape:showpageshadow="2"
     inkscape:pageopacity="0.0"
     inkscape:pagecheckerboard="0"
     inkscape:deskcolor="#d1d1d1"
     inkscape:document-units="mm"
     inkscape:zoom="0.824039"
     inkscape:cx="259.69645"
     inkscape:cy="64.924112"
     inkscape:window-width="1920"
     inkscape:window-height="1149"
     inkscape:window-x="0"
     inkscape:window-y="27"
     inkscape:window-maximized="1"
     inkscape:current-layer="layer1"
     showgrid="false" />
  <defs
     id="defs1">
    <filter
       style="color-interpolation-filters:sRGB"
       inkscape:label="Invert"
       id="filter8-1"
       x="0"
       y="0"
       width="1.0396068"
       height="1.0798196">
      <feColorMatrix
         type="hueRotate"
         values="180"
         result="color1"
         id="feColorMatrix7-8" />
      <feColorMatrix
         values="-1 0 0 0 1 0 -1 0 0 1 0 0 -1 0 1 -0.21 -0.72 -0.07 2 0 "
         result="color2"
         id="feColorMatrix8-7" />
    </filter>
    <filter
       style="color-interpolation-filters:sRGB"
       inkscape:label="Invert"
       id="filter2"
       x="0"
       y="0"
       width="1"
       height="1">
      <feColorMatrix
         type="hueRotate"
         values="180"
         result="color1"
         id="feColorMatrix1" />
      <feColorMatrix
         values="-1 0 0 0 1 0 -1 0 0 1 0 0 -1 0 1 -0.21 -0.72 -0.07 2 0 "
         result="color2"
         id="feColorMatrix2" />
    </filter>
    <filter
       style="color-interpolation-filters:sRGB"
       inkscape:label="Invert"
       id="filter8"
       x="-0.24534502"
       y="-0.792346"
       width="1.49069"
       height="2.584692">
      <feColorMatrix
         type="hueRotate"
         values="180"
         result="color1"
         id="feColorMatrix7" />
      <feColorMatrix
         values="-1 0 0 0 1 0 -1 0 0 1 0 0 -1 0 1 -0.21 -0.72 -0.07 2 0 "
         result="color2"
         id="feColorMatrix8" />
    </filter>
    <filter
       style="color-interpolation-filters:sRGB"
       inkscape:label="Invert"
       id="filter6"
       x="-0.24166678"
       y="-0.41907915"
       width="1.4833336"
       height="1.8381583">
      <feColorMatrix
         type="hueRotate"
         values="180"
         result="color1"
         id="feColorMatrix5" />
      <feColorMatrix
         values="-1 0 0 0 1 0 -1 0 0 1 0 0 -1 0 1 -0.21 -0.72 -0.07 2 0 "
         result="color2"
         id="feColorMatrix6" />
    </filter>
    <filter
       style="color-interpolation-filters:sRGB"
       inkscape:label="Invert"
       id="filter4"
       x="-0.41907915"
       y="-0.24206934"
       width="1.8381583"
       height="1.4841387">
      <feColorMatrix
         type="hueRotate"
         values="180"
         result="color1"
         id="feColorMatrix3" />
      <feColorMatrix
         values="-1 0 0 0 1 0 -1 0 0 1 0 0 -1 0 1 -0.21 -0.72 -0.07 2 0 "
         result="color2"
         id="feColorMatrix4" />
    </filter>
  </defs>
  <g
     inkscape:label="Layer 1"
     inkscape:groupmode="layer"
     id="layer1"
     transform="translate(-36.247919,-130.97525)">
    <path
       style="font-weight:bold;font-size:27.9736px;line-height:1.25;font-family:Lato;-inkscape-font-specification:'Lato Bold';stroke-width:0.291391"
       d="m 42.821715,146.70222 q 1.035023,0 1.804297,-0.25176 0.769274,-0.26575 1.272799,-0.7413 0.517512,-0.48954 0.769274,-1.1749 0.251763,-0.69934 0.251763,-1.55253 0,-0.81123 -0.251763,-1.46861 -0.251762,-0.65738 -0.755287,-1.11895 -0.503525,-0.46156 -1.272799,-0.69934 -0.769274,-0.25176 -1.818284,-0.25176 h -2.811347 v 7.25915 z m 0,-10.16841 q 2.028086,0 3.510687,0.47556 1.482601,0.47555 2.44769,1.32874 0.965089,0.8532 1.426654,2.04208 0.475551,1.18887 0.475551,2.60154 0,1.46861 -0.489538,2.69945 -0.489538,1.21685 -1.468614,2.09802 -0.979076,0.88117 -2.461677,1.37071 -1.468614,0.48954 -3.440753,0.48954 h -2.811347 v 7.11928 h -3.762449 v -20.22492 z m 17.343643,14.0987 q -1.496588,0.0699 -2.517624,0.26575 -1.021037,0.18183 -1.636456,0.47555 -0.615419,0.29372 -0.881168,0.68535 -0.26575,0.39163 -0.26575,0.8532 0,0.90914 0.531499,1.30077 0.545485,0.39163 1.412667,0.39163 1.062996,0 1.83227,-0.37764 0.783261,-0.39163 1.524562,-1.17489 z m -7.916529,-6.22413 q 2.475663,-2.26586 5.958377,-2.26586 1.258812,0 2.251874,0.41961 0.993063,0.40561 1.678416,1.14691 0.685354,0.72732 1.035024,1.74835 0.363657,1.02104 0.363657,2.23789 v 9.06345 h -1.566522 q -0.489538,0 -0.755287,-0.13987 -0.26575,-0.15385 -0.419604,-0.60143 l -0.30771,-1.03503 q -0.545485,0.48954 -1.062997,0.86719 -0.517511,0.36365 -1.076983,0.61542 -0.559472,0.25176 -1.202865,0.37764 -0.629406,0.13987 -1.39868,0.13987 -0.909142,0 -1.678416,-0.23778 -0.769274,-0.25176 -1.328746,-0.7413 -0.559472,-0.48954 -0.867182,-1.21685 -0.307709,-0.72731 -0.307709,-1.6924 0,-0.54549 0.181828,-1.07699 0.181828,-0.54548 0.587446,-1.03502 0.419604,-0.48954 1.076983,-0.92313 0.65738,-0.43359 1.608482,-0.75529 0.965089,-0.32169 2.237888,-0.51751 1.272799,-0.2098 2.909255,-0.25176 v -0.83921 q 0,-1.44064 -0.61542,-2.12599 -0.615419,-0.69934 -1.776323,-0.69934 -0.839208,0 -1.39868,0.19581 -0.545485,0.19582 -0.965089,0.44758 -0.419604,0.23778 -0.769274,0.43359 -0.335684,0.19582 -0.755288,0.19582 -0.363656,0 -0.615419,-0.18183 -0.251762,-0.19582 -0.405617,-0.44758 z m 17.7912,0.48954 q 0.671366,-1.28678 1.594495,-2.0141 0.923129,-0.7413 2.181941,-0.7413 0.993063,0 1.594495,0.43359 l -0.223789,2.58756 q -0.06993,0.25176 -0.209802,0.36366 -0.125881,0.0979 -0.34967,0.0979 -0.209802,0 -0.629406,-0.0699 -0.405617,-0.0699 -0.797247,-0.0699 -0.573459,0 -1.021037,0.16784 -0.447577,0.16784 -0.811234,0.48954 -0.34967,0.30771 -0.629406,0.75528 -0.265749,0.44758 -0.503525,1.02104 v 8.83966 h -3.45474 v -14.35046 h 2.028086 q 0.531499,0 0.741301,0.19582 0.209802,0.18182 0.279736,0.67136 z m 21.651545,11.86081 h -3.45474 v -11.7629 h -6.657716 v 7.77666 q 0,0.67137 0.321696,1.04901 0.335683,0.37764 0.909142,0.37764 0.321696,0 0.531498,-0.0699 0.223789,-0.0839 0.377644,-0.16784 0.167842,-0.0839 0.293723,-0.15386 0.125881,-0.0839 0.251762,-0.0839 0.153855,0 0.251763,0.0839 0.09791,0.0699 0.209802,0.22379 l 1.035023,1.67842 q -0.755287,0.6294 -1.734363,0.9511 -0.979076,0.3217 -2.028086,0.3217 -1.874232,0 -2.881281,-1.04901 -0.993063,-1.063 -0.993063,-2.92324 v -8.01444 h -1.468614 q -0.279736,0 -0.475551,-0.18183 -0.195816,-0.18183 -0.195816,-0.54548 v -1.37071 l 2.307823,-0.39163 0.727313,-3.90232 q 0.06993,-0.27973 0.265749,-0.43359 0.195816,-0.15385 0.503525,-0.15385 h 1.790311 v 4.51773 h 10.112456 z m 0.601433,-18.58846 q 0,0.44758 -0.181829,0.8532 -0.181828,0.39163 -0.489538,0.68535 -0.293723,0.29372 -0.713327,0.47555 -0.405617,0.16784 -0.867181,0.16784 -0.447578,0 -0.839208,-0.16784 -0.391631,-0.18183 -0.685354,-0.47555 -0.293722,-0.29372 -0.475551,-0.68535 -0.167841,-0.40562 -0.167841,-0.8532 0,-0.46156 0.167841,-0.85319 0.181829,-0.40562 0.475551,-0.69934 0.293723,-0.30771 0.685354,-0.47556 0.39163,-0.18182 0.839208,-0.18182 0.461564,0 0.867181,0.18182 0.419604,0.16785 0.713327,0.47556 0.30771,0.29372 0.489538,0.69934 0.181829,0.39163 0.181829,0.85319 z m 13.203523,7.27314 q -0.15386,0.19581 -0.30771,0.30771 -0.13987,0.11189 -0.41961,0.11189 -0.26575,0 -0.51751,-0.15385 -0.25176,-0.16785 -0.60143,-0.36366 -0.34967,-0.2098 -0.83921,-0.36366 -0.47555,-0.16784 -1.18888,-0.16784 -0.90914,0 -1.59449,0.33568 -0.685356,0.3217 -1.146921,0.93712 -0.447577,0.61542 -0.671366,1.49659 -0.223789,0.86718 -0.223789,1.97214 0,1.14691 0.237776,2.04207 0.251762,0.89515 0.713327,1.51057 0.461564,0.60144 1.118943,0.92313 0.65738,0.30771 1.4826,0.30771 0.82522,0 1.32875,-0.19581 0.51751,-0.20981 0.86718,-0.44758 0.34967,-0.25176 0.60143,-0.44758 0.26575,-0.2098 0.58745,-0.2098 0.4196,0 0.6294,0.3217 l 0.99307,1.25881 q -0.57346,0.67136 -1.24483,1.13293 -0.67137,0.44758 -1.39868,0.72731 -0.71333,0.26575 -1.4826,0.37765 -0.75529,0.11189 -1.51057,0.11189 -1.328751,0 -2.503642,-0.48954 -1.174891,-0.50352 -2.056059,-1.45463 -0.881169,-0.9511 -1.39868,-2.3218 -0.503525,-1.3847 -0.503525,-3.14703 0,-1.58051 0.447577,-2.92325 0.461565,-1.35671 1.342733,-2.33579 0.881169,-0.99306 2.181941,-1.55254 1.300772,-0.55947 2.993175,-0.55947 1.60848,0 2.81135,0.51751 1.21685,0.51752 2.18194,1.4826 z m 6.69968,-9.46907 v 20.78439 h -3.45474 v -20.78439 z m 12.70005,11.95872 q 0,-0.67137 -0.19582,-1.25881 -0.18183,-0.60144 -0.55947,-1.04901 -0.37764,-0.44758 -0.96509,-0.69934 -0.57346,-0.26575 -1.34273,-0.26575 -1.49659,0 -2.36377,0.85319 -0.8532,0.8532 -1.09097,2.41972 z m -6.58779,2.08403 q 0.0839,1.10496 0.39163,1.91619 0.30771,0.79725 0.81124,1.32875 0.50352,0.51751 1.18888,0.78326 0.69934,0.25176 1.53854,0.25176 0.83921,0 1.44064,-0.19581 0.61542,-0.19582 1.063,-0.43359 0.46157,-0.23778 0.79725,-0.4336 0.34967,-0.19581 0.67137,-0.19581 0.43359,0 0.64339,0.3217 l 0.99306,1.25881 q -0.57346,0.67136 -1.28678,1.13293 -0.71333,0.44758 -1.49659,0.72731 -0.76928,0.26575 -1.58051,0.37765 -0.79725,0.11189 -1.55254,0.11189 -1.49658,0 -2.78337,-0.48954 -1.28678,-0.50352 -2.23789,-1.46861 -0.9511,-0.97908 -1.49658,-2.40573 -0.54549,-1.44064 -0.54549,-3.32886 0,-1.46861 0.47555,-2.7554 0.47555,-1.30077 1.35672,-2.25187 0.89516,-0.96509 2.16796,-1.52457 1.28678,-0.55947 2.89526,-0.55947 1.35672,0 2.50364,0.43359 1.14692,0.43359 1.97214,1.2728 0.82522,0.82522 1.28678,2.04207 0.47556,1.20287 0.47556,2.7554 0,0.78327 -0.16785,1.063 -0.16784,0.26575 -0.64339,0.26575 z m 23.316,-9.80475 q -0.16784,0.29373 -0.36366,0.43359 -0.18183,0.12589 -0.46156,0.12589 -0.29373,0 -0.6434,-0.20981 -0.33568,-0.22379 -0.81123,-0.48953 -0.47555,-0.26575 -1.11894,-0.47556 -0.62941,-0.22378 -1.49659,-0.22378 -0.78326,0 -1.37071,0.19581 -0.58744,0.18183 -0.99306,0.51751 -0.39163,0.33569 -0.58745,0.81124 -0.19581,0.46156 -0.19581,1.02103 0,0.71333 0.39163,1.18888 0.40561,0.47555 1.06299,0.81124 0.65738,0.33568 1.49659,0.60143 0.83921,0.26575 1.72038,0.57346 0.88117,0.29372 1.72038,0.69934 0.8392,0.39163 1.49658,1.00705 0.65738,0.60143 1.04901,1.4826 0.40562,0.88117 0.40562,2.13998 0,1.3707 -0.47555,2.57357 -0.46157,1.18888 -1.37071,2.08403 -0.89515,0.88117 -2.19593,1.39868 -1.30077,0.50353 -2.97918,0.50353 -0.96509,0 -1.90221,-0.19582 -0.93711,-0.18183 -1.8043,-0.5315 -0.85319,-0.34967 -1.60848,-0.8392 -0.75529,-0.48954 -1.34273,-1.09098 l 1.10496,-1.80429 q 0.13986,-0.19582 0.36365,-0.3217 0.22379,-0.13987 0.47555,-0.13987 0.34967,0 0.75529,0.29373 0.40562,0.27973 0.96509,0.6294 0.55947,0.34967 1.30077,0.64339 0.75529,0.27974 1.8043,0.27974 1.60848,0 2.48965,-0.75529 0.88117,-0.76927 0.88117,-2.19592 0,-0.79725 -0.40562,-1.30078 -0.39163,-0.50352 -1.04901,-0.8392 -0.65738,-0.34967 -1.49659,-0.58745 -0.8392,-0.23778 -1.70639,-0.51751 -0.86718,-0.27974 -1.70638,-0.67137 -0.83921,-0.39163 -1.49659,-1.02103 -0.65738,-0.62941 -1.063,-1.56653 -0.39163,-0.9511 -0.39163,-2.33579 0,-1.10496 0.43359,-2.15397 0.44758,-1.04901 1.28679,-1.86024 0.8392,-0.81124 2.07004,-1.30078 1.23084,-0.48953 2.82534,-0.48953 1.79031,0 3.30088,0.55947 1.51058,0.55947 2.57357,1.56652 z m 7.21717,12.8259 q 0.58745,0.71333 1.2728,1.00705 0.69934,0.29372 1.51058,0.29372 0.78326,0 1.41266,-0.29372 0.62941,-0.29372 1.063,-0.89516 0.44758,-0.60143 0.68535,-1.51057 0.23778,-0.92313 0.23778,-2.16795 0,-1.25882 -0.2098,-2.126 -0.19582,-0.88117 -0.57346,-1.42665 -0.37764,-0.54549 -0.92313,-0.79725 -0.5315,-0.25176 -1.21685,-0.25176 -1.07698,0 -1.83227,0.46156 -0.75529,0.44758 -1.42666,1.2728 z m -0.18182,-8.67182 q 0.88116,-0.99306 2.00011,-1.60848 1.11894,-0.61542 2.62952,-0.61542 1.17489,0 2.13998,0.48954 0.97907,0.48954 1.67841,1.42665 0.71333,0.92313 1.09097,2.29384 0.39163,1.35672 0.39163,3.11906 0,1.60848 -0.43359,2.97918 -0.43359,1.37071 -1.24482,2.37776 -0.79725,1.00705 -1.94417,1.58051 -1.13293,0.55947 -2.54559,0.55947 -1.20287,0 -2.05606,-0.36366 -0.8532,-0.37764 -1.52457,-1.03502 v 5.87446 h -3.45474 v -19.03604 h 2.11201 q 0.67137,0 0.88117,0.62941 z m 25.2462,-1.95815 -7.81862,18.29474 q -0.15385,0.36365 -0.40561,0.54548 -0.23778,0.19582 -0.7413,0.19582 h -2.57358 l 2.68547,-5.76257 -5.80452,-13.27347 h 3.03513 q 0.40562,0 0.62941,0.19582 0.23777,0.19581 0.34967,0.44757 l 3.04912,7.44098 q 0.15386,0.37765 0.25176,0.75529 0.1119,0.37764 0.20981,0.76927 0.12588,-0.39163 0.25176,-0.76927 0.12588,-0.39163 0.27973,-0.76928 l 2.88129,-7.42699 q 0.11189,-0.27973 0.36365,-0.46156 0.26575,-0.18183 0.58745,-0.18183 z"
       id="text1"
       aria-label="ParticleSpy" />
    <g
       id="g3-6-6-6-8-9-4-5"
       transform="matrix(0.94672563,0.2055928,-0.2055928,0.94672563,51.026219,-70.762824)"
       inkscape:transform-center-x="-2.0954631"
       inkscape:transform-center-y="-0.14672454"
       style="fill:#000000;filter:url(#filter8-1)">
      <path
         class="cls-3"
         d="m 139.10715,192.58632 c -0.38365,1.15094 -3.00926,1.64913 -3.80866,1.29358 -0.89524,-0.39818 -1.72851,-1.33736 -2.4338,-1.27728 -0.45608,0.0388 -0.53881,-0.84709 -0.91717,-0.79418 v -0.95779 c 0.41011,-0.0291 1.16152,-0.77787 1.28852,-0.79375 1.56369,-0.0688 2.45503,-0.82687 3.31039,-0.52708 0.79126,0.27733 2.92584,1.93731 2.56072,3.0565 z"
         id="path14-8-4-2-1-4-1-7-4"
         style="fill:#000000;stroke-width:0.264583;filter:url(#filter2)"
         sodipodi:nodetypes="csscccsc" />
      <path
         id="line14-0-3-9-5-3-2-6-7"
         style="stroke:#000000;stroke-width:0.767292px;stroke-linecap:round;stroke-miterlimit:10;filter:url(#filter8)"
         class="cls-4"
         d="m 138.4827,192.20264 1.5637,0.48419" />
      <path
         id="line15-2-3-1-5-1-7-5-6"
         style="stroke:#000000;stroke-width:0.767292px;stroke-linecap:round;stroke-miterlimit:10;filter:url(#filter6)"
         class="cls-4"
         d="m 141.6339,191.77138 -1.5875,0.91545" />
      <path
         id="line16-1-3-2-4-4-0-6-5"
         style="stroke:#000000;stroke-width:0.767292px;stroke-linecap:round;stroke-miterlimit:10;filter:url(#filter4)"
         class="cls-4"
         d="m 141.00154,194.26639 -0.91545,-1.58486" />
    </g>
  </g>
</svg>
