<?xml version="1.0" encoding="UTF-8" standalone="no"?>
<!-- Created with Inkscape (http://www.inkscape.org/) -->

<svg
   width="1023.6675"
   height="323.15012"
   viewBox="0 0 1023.6675 323.15012"
   version="1.1"
   id="svg1"
   xml:space="preserve"
   inkscape:version="1.3.2 (091e20ef0f, 2023-11-25, custom)"
   sodipodi:docname="pyxem-banner.svg"
   inkscape:export-filename="../Pictures/pyxem_banner.png"
   inkscape:export-xdpi="96"
   inkscape:export-ydpi="96"
   xmlns:inkscape="http://www.inkscape.org/namespaces/inkscape"
   xmlns:sodipodi="http://sodipodi.sourceforge.net/DTD/sodipodi-0.dtd"
   xmlns="http://www.w3.org/2000/svg"
   xmlns:svg="http://www.w3.org/2000/svg"><sodipodi:namedview
     id="namedview1"
     pagecolor="#ffffff"
     bordercolor="#000000"
     borderopacity="0.25"
     inkscape:showpageshadow="2"
     inkscape:pageopacity="0.0"
     inkscape:pagecheckerboard="0"
     inkscape:deskcolor="#d1d1d1"
     inkscape:document-units="px"
     inkscape:zoom="0.70710678"
     inkscape:cx="258.80108"
     inkscape:cy="323.1478"
     inkscape:window-width="1920"
     inkscape:window-height="1149"
     inkscape:window-x="0"
     inkscape:window-y="27"
     inkscape:window-maximized="1"
     inkscape:current-layer="layer1"
     showgrid="false" /><defs
     id="defs1"><inkscape:path-effect
       effect="fillet_chamfer"
       id="path-effect18"
       is_visible="true"
       lpeversion="1"
       nodesatellites_param="F,0,0,1,0,54.185729,0,1 @ F,0,0,1,0,53.193453,0,1 @ F,0,0,1,0,50.973661,0,1 @ F,0,0,1,0,56.405521,0,1"
       radius="0"
       unit="px"
       method="auto"
       mode="F"
       chamfer_steps="1"
       flexible="false"
       use_knot_distance="true"
       apply_no_radius="true"
       apply_with_radius="true"
       only_selected="false"
       hide_knots="false" /><inkscape:path-effect
       effect="fillet_chamfer"
       id="path-effect17"
       is_visible="true"
       lpeversion="1"
       nodesatellites_param="F,0,0,1,0,0,0,1 @ F,0,0,1,0,0,0,1 @ F,0,0,1,0,0,0,1 @ F,0,0,1,0,0,0,1"
       radius="0"
       unit="px"
       method="auto"
       mode="F"
       chamfer_steps="1"
       flexible="false"
       use_knot_distance="true"
       apply_no_radius="true"
       apply_with_radius="true"
       only_selected="false"
       hide_knots="false" /><inkscape:path-effect
       effect="fillet_chamfer"
       id="path-effect16"
       is_visible="true"
       lpeversion="1"
       nodesatellites_param="F,0,0,1,0,0,0,1 @ F,0,0,1,0,0,0,1 @ F,0,0,1,0,0,0,1 @ F,0,0,1,0,0,0,1"
       radius="0"
       unit="px"
       method="auto"
       mode="F"
       chamfer_steps="1"
       flexible="false"
       use_knot_distance="true"
       apply_no_radius="true"
       apply_with_radius="true"
       only_selected="false"
       hide_knots="false" /><inkscape:path-effect
       effect="fillet_chamfer"
       id="path-effect15"
       is_visible="true"
       lpeversion="1"
       nodesatellites_param=""
       radius="0"
       unit="px"
       method="auto"
       mode="F"
       chamfer_steps="1"
       flexible="false"
       use_knot_distance="true"
       apply_no_radius="true"
       apply_with_radius="true"
       only_selected="false"
       hide_knots="false" /><inkscape:path-effect
       effect="fillet_chamfer"
       id="path-effect14"
       is_visible="true"
       lpeversion="1"
       nodesatellites_param="F,0,0,1,0,0,0,1 @ F,0,0,1,0,0,0,1 @ F,0,0,1,0,0,0,1 @ F,0,0,1,0,0,0,1"
       radius="0"
       unit="px"
       method="auto"
       mode="F"
       chamfer_steps="1"
       flexible="false"
       use_knot_distance="true"
       apply_no_radius="true"
       apply_with_radius="true"
       only_selected="false"
       hide_knots="false" /><inkscape:path-effect
       effect="fillet_chamfer"
       id="path-effect13"
       is_visible="true"
       lpeversion="1"
       nodesatellites_param="F,0,0,1,0,9.7388846,0,1 @ F,0,0,1,0,12.728251,0,1 @ F,0,0,1,0,15.87975,0,1"
       radius="0"
       unit="px"
       method="auto"
       mode="F"
       chamfer_steps="1"
       flexible="false"
       use_knot_distance="true"
       apply_no_radius="true"
       apply_with_radius="true"
       only_selected="false"
       hide_knots="false" /><inkscape:path-effect
       effect="fillet_chamfer"
       id="path-effect8"
       is_visible="true"
       lpeversion="1"
       nodesatellites_param="F,0,0,1,0,13.021443,0,1 @ F,0,0,1,0,12.863342,0,1 @ F,0,0,1,0,11.853559,0,1 @ F,0,0,1,0,9.6141436,0,1"
       radius="0"
       unit="px"
       method="auto"
       mode="F"
       chamfer_steps="1"
       flexible="false"
       use_knot_distance="true"
       apply_no_radius="true"
       apply_with_radius="true"
       only_selected="false"
       hide_knots="false" /><inkscape:path-effect
       effect="fillet_chamfer"
       id="path-effect12"
       is_visible="true"
       lpeversion="1"
       nodesatellites_param="F,0,1,1,0,9.9264837,0,1 @ F,0,0,1,0,7.360347,0,1 @ F,0,0,1,0,9.9264837,0,1"
       radius="0"
       unit="px"
       method="auto"
       mode="F"
       chamfer_steps="1"
       flexible="false"
       use_knot_distance="true"
       apply_no_radius="true"
       apply_with_radius="true"
       only_selected="false"
       hide_knots="false" /><inkscape:path-effect
       effect="fillet_chamfer"
       id="path-effect11"
       is_visible="true"
       lpeversion="1"
       nodesatellites_param="F,0,0,1,0,13.073358,0,1 @ F,0,0,1,0,14.208938,0,1 @ F,0,0,1,0,17.255004,0,1 @ F,0,0,1,0,15.185689,0,1"
       radius="0"
       unit="px"
       method="auto"
       mode="F"
       chamfer_steps="1"
       flexible="false"
       use_knot_distance="true"
       apply_no_radius="true"
       apply_with_radius="true"
       only_selected="false"
       hide_knots="false" /><inkscape:path-effect
       effect="fillet_chamfer"
       id="path-effect10"
       is_visible="true"
       lpeversion="1"
       nodesatellites_param="F,0,0,1,0,8.8144758,0,1 @ F,0,0,1,0,11.284164,0,1 @ F,0,0,1,0,3.8445737,0,1 @ F,0,0,1,0,4.8643069,0,1 @ F,0,0,1,0,12.652969,0,1"
       radius="0"
       unit="px"
       method="auto"
       mode="F"
       chamfer_steps="1"
       flexible="false"
       use_knot_distance="true"
       apply_no_radius="true"
       apply_with_radius="true"
       only_selected="false"
       hide_knots="false" /><inkscape:path-effect
       effect="fillet_chamfer"
       id="path-effect9"
       is_visible="true"
       lpeversion="1"
       nodesatellites_param="F,0,0,1,0,6.2864795,0,1 @ F,0,0,1,0,5.2795539,0,1 @ F,0,0,1,0,8.0239091,0,1 @ F,0,0,1,0,4.8523824,0,1 @ F,0,0,1,0,6.4538703,0,1 @ F,0,0,1,0,7.5943153,0,1 @ F,0,0,1,0,7.0545545,0,1 @ F,0,0,1,0,16.67602,0,1 @ F,0,0,1,0,6.4153056,0,1 @ F,0,0,1,0,3.2797871,0,1 @ F,0,0,1,0,8.5825645,0,1 @ F,0,0,1,0,10.003534,0,1 @ F,0,0,1,0,6.2532831,0,1"
       radius="0"
       unit="px"
       method="auto"
       mode="F"
       chamfer_steps="1"
       flexible="false"
       use_knot_distance="true"
       apply_no_radius="true"
       apply_with_radius="true"
       only_selected="false"
       hide_knots="false" /><inkscape:path-effect
       effect="fillet_chamfer"
       id="path-effect7"
       is_visible="true"
       lpeversion="1"
       nodesatellites_param="F,0,0,1,0,16.343591,0,1 @ F,0,0,1,0,15.04125,0,1 @ F,0,0,1,0,10.206246,0,1 @ F,0,0,1,0,8.4692191,0,1 @ F,0,0,1,0,5.944949,0,1 @ F,0,0,1,0,8.2942048,0,1 @ F,0,0,1,0,15.981694,0,1 @ F,0,0,1,0,13.66531,0,1 @ F,0,0,1,0,18.095914,0,1 @ F,0,0,1,0,5.7088827,0,1 @ F,0,0,1,0,12.214036,0,1 @ F,0,0,1,0,11.648405,0,1 @ F,0,0,1,0,13.456297,0,1 @ F,0,0,1,0,16.894011,0,1 @ F,0,0,1,0,12.736331,0,1 @ F,0,0,1,0,15.581604,0,1"
       radius="0"
       unit="px"
       method="auto"
       mode="F"
       chamfer_steps="1"
       flexible="false"
       use_knot_distance="true"
       apply_no_radius="true"
       apply_with_radius="true"
       only_selected="false"
       hide_knots="false" /><inkscape:path-effect
       effect="fillet_chamfer"
       id="path-effect6"
       is_visible="true"
       lpeversion="1"
       nodesatellites_param="F,0,0,1,0,0,0,1 @ F,0,0,1,0,0,0,1 @ F,0,0,1,0,0,0,1 @ F,0,0,1,0,0,0,1 @ F,0,0,1,0,0,0,1 @ F,0,0,1,0,0,0,1 @ F,0,0,1,0,0,0,1 @ F,0,0,1,0,0,0,1 @ F,0,0,1,0,0,0,1 @ F,0,0,1,0,0,0,1 @ F,0,0,1,0,0,0,1 @ F,0,0,1,0,0,0,1 @ F,0,0,1,0,0,0,1 @ F,0,0,1,0,0,0,1 @ F,0,0,1,0,0,0,1 @ F,0,0,1,0,0,0,1"
       radius="0"
       unit="px"
       method="auto"
       mode="F"
       chamfer_steps="1"
       flexible="false"
       use_knot_distance="true"
       apply_no_radius="true"
       apply_with_radius="true"
       only_selected="false"
       hide_knots="false" /><inkscape:path-effect
       effect="fillet_chamfer"
       id="path-effect13-8"
       is_visible="true"
       lpeversion="1"
       nodesatellites_param="F,0,0,1,0,9.7388846,0,1 @ F,0,0,1,0,12.728251,0,1 @ F,0,0,1,0,15.87975,0,1"
       radius="0"
       unit="px"
       method="auto"
       mode="F"
       chamfer_steps="1"
       flexible="false"
       use_knot_distance="true"
       apply_no_radius="true"
       apply_with_radius="true"
       only_selected="false"
       hide_knots="false" /><inkscape:path-effect
       effect="fillet_chamfer"
       id="path-effect8-3"
       is_visible="true"
       lpeversion="1"
       nodesatellites_param="F,0,0,1,0,13.021443,0,1 @ F,0,0,1,0,12.863342,0,1 @ F,0,0,1,0,11.274733,0,1 @ F,0,0,1,0,9.6141436,0,1"
       radius="0"
       unit="px"
       method="auto"
       mode="F"
       chamfer_steps="1"
       flexible="false"
       use_knot_distance="true"
       apply_no_radius="true"
       apply_with_radius="true"
       only_selected="false"
       hide_knots="false" /></defs><g
     inkscape:label="Layer 1"
     inkscape:groupmode="layer"
     id="layer1"
     transform="translate(-0.33442089,-0.69961333)"><path
       style="fill:#223756;fill-opacity:1;stroke:none;stroke-width:11.8793;stroke-miterlimit:2.4;paint-order:stroke fill markers"
       id="rect17"
       width="1023.6675"
       height="323.15012"
       x="0.33442089"
       y="0.69961333"
       inkscape:label="rect17"
       sodipodi:type="rect"
       d="m 54.52015,0.69961333 916.2883,0 A 53.193453,53.193453 45 0 1 1024.0019,53.893066 V 272.87607 a 50.973661,50.973661 135 0 1 -50.97366,50.97366 H 56.739942 A 56.405521,56.405521 45 0 1 0.33442089,267.44421 V 54.885342 A 54.185729,54.185729 135 0 1 54.52015,0.69961333 Z"
       inkscape:path-effect="#path-effect18" /><path
       id="path1"
       style="fill:#b89f57;fill-opacity:1;stroke:none;stroke-width:0.465063;stroke-miterlimit:2.4;paint-order:stroke fill markers"
       d="m 209.25222,78.213864 12.21484,59.527356 72.63672,56.62305 -28.56445,78.17968 26.77344,45.66992 47.30664,-45.39257 5.16406,-43.9375 40.41797,-7.44336 -2.4082,-29.69141 38.31445,-51.81055 -13.22852,-48.736326 -53.26367,13.787116 -15.98242,24.18359 -8.30859,-22.19336 -27.17383,17.625 -35.17383,-40.937506 z m 14.35352,10.12696 40.70898,4.12695 37.14844,46.207036 25.58203,-17.03125 4.47461,42.66406 33.00195,-43.99414 36.39844,-16.71484 -43.13672,77.85547 17.66211,9.17578 0.64844,16.09766 -56.26367,-22.31446 -57.95118,-68.89648 -30.32617,10.58594 z m 90.19531,109.251956 7.13867,11.45117 -25.98437,87.95899 -16.99024,-23.94141 26.91992,-72.84766 z" /><path
       style="font-size:265.748px;line-height:0px;font-family:'Noto Sans Adlam';-inkscape-font-specification:'Noto Sans Adlam';fill:#b89f57;stroke-width:9.41624;stroke-miterlimit:2.4;paint-order:stroke fill markers"
       d="m 210.96805,150.11976 q 0,17.64733 -5.06063,32.31018 -5.06063,14.5331 -14.27358,24.65436 -8.56414,9.60222 -20.24252,14.92237 -11.54862,5.19039 -24.52459,5.19039 -11.2891,0 -20.50205,-2.46543 -9.08318,-2.46544 -18.55564,-7.65583 v 60.72757 H 83.414205 V 79.400696 h 24.394835 v 15.181891 q 9.73198,-8.174864 21.79964,-13.624774 12.19742,-5.57967 25.95195,-5.57967 26.21147,0 40.74456,19.853243 14.66286,19.723484 14.66286,54.888374 z m -25.1734,0.6488 q 0,-26.21147 -8.95342,-39.18744 -8.95342,-12.97598 -27.50907,-12.97598 -10.51054,0 -21.15084,4.54159 -10.6403,4.54159 -20.37228,11.9379 v 82.13793 q 10.38078,4.67135 17.77709,6.35822 7.52606,1.68688 16.99852,1.68688 20.37229,0 31.79115,-13.75453 11.41885,-13.75454 11.41885,-40.74457 z m 375.52473,73.57379 h -30.75306 l -41.13384,-55.66694 -41.39337,55.66694 h -28.41738 l 56.57525,-72.27619 -56.05622,-72.665464 h 30.75307 l 40.87432,54.758614 41.00408,-54.758614 h 28.54715 L 504.35485,150.76856 Z M 711.32167,154.40184 H 604.52939 q 0,13.36525 4.02255,23.35675 4.02256,9.86174 11.02958,16.21997 6.74751,6.22847 15.96045,9.34271 9.34271,3.11423 20.50204,3.11423 14.79262,0 29.71499,-5.83919 15.05213,-5.96895 21.41036,-11.67838 h 1.2976 v 26.60075 q -12.32718,5.19039 -25.1734,8.69391 -12.84621,3.50351 -26.99003,3.50351 -36.07321,0 -56.31573,-19.46396 -20.24252,-19.59373 -20.24252,-55.53718 0,-35.55417 19.3342,-56.445496 19.46396,-20.891321 51.12535,-20.891321 29.3257,0 45.15639,17.128288 15.96045,17.128289 15.96045,48.659909 z m -23.74603,-18.68541 q -0.12976,-19.20444 -9.73199,-29.71498 -9.47246,-10.510544 -28.93642,-10.510544 -19.59373,0 -31.2721,11.548614 -11.54862,11.54862 -13.10574,28.67691 z m 272.23601,88.62592 h -24.39484 v -82.52721 q 0,-9.3427 -0.90831,-18.03661 -0.77856,-8.6939 -3.50352,-13.88429 -2.98447,-5.57967 -8.56414,-8.43439 -5.57967,-2.85471 -16.09021,-2.85471 -10.25102,0 -20.50204,5.19039 -10.25102,5.06063 -20.50204,12.97598 0.38927,2.98447 0.64879,7.00702 0.25952,3.8928 0.25952,7.78559 v 92.77823 h -24.39483 v -82.52721 q 0,-9.60222 -0.90832,-18.16637 -0.77856,-8.6939 -3.50351,-13.88429 -2.98448,-5.57967 -8.56415,-8.30463 -5.57967,-2.85471 -16.09021,-2.85471 -9.9915,0 -20.11276,4.93087 -9.9915,4.93087 -19.983,12.5867 V 224.34235 H 748.30324 V 79.400696 h 24.39484 v 16.09021 q 11.41886,-9.472463 22.70796,-14.792613 11.41885,-5.32015 24.26507,-5.32015 14.79261,0 25.04363,6.228469 10.38078,6.228468 15.44141,17.258048 14.79262,-12.456937 26.99003,-17.906847 12.19742,-5.57967 26.08172,-5.57967 23.87579,0 35.16489,14.533093 11.41886,14.403334 11.41886,40.355284 z"
       id="text1"
       transform="scale(0.99512875,1.0048951)"
       aria-label="p  xem" /></g></svg>
